SplineFontDB: 3.2
FontName: sinhala115
FullName: sinhala115
FamilyName: sinhala115
Weight: Regular
Copyright: Copyright 2022 The Noto Project Authors (https://github.com/notofonts/sinhala)
Version: 2.006
ItalicAngle: 0
UnderlinePosition: -125
UnderlineWidth: 50
Ascent: 800
Descent: 200
InvalidEm: 0
sfntRevision: 0x00020189
LayerCount: 2
Layer: 0 1 "Back" 1
Layer: 1 1 "Fore" 0
XUID: [1021 863 109920625 14062016]
StyleMap: 0x0040
FSType: 0
OS2Version: 4
OS2_WeightWidthSlopeOnly: 0
OS2_UseTypoMetrics: 1
CreationTime: 1461059370
ModificationTime: 1735515259
PfmFamily: 81
TTFWeight: 400
TTFWidth: 5
LineGap: 0
VLineGap: 0
Panose: 0 0 0 0 0 0 0 0 0 0
OS2TypoAscent: 1011
OS2TypoAOffset: 0
OS2TypoDescent: -293
OS2TypoDOffset: 0
OS2TypoLinegap: 0
OS2WinAscent: 1011
OS2WinAOffset: 0
OS2WinDescent: 293
OS2WinDOffset: 0
HheadAscent: 1011
HheadAOffset: 0
HheadDescent: -293
HheadDOffset: 0
OS2SubXSize: 650
OS2SubYSize: 600
OS2SubXOff: 0
OS2SubYOff: 75
OS2SupXSize: 650
OS2SupYSize: 600
OS2SupXOff: 0
OS2SupYOff: 350
OS2StrikeYSize: 50
OS2StrikeYPos: 322
OS2CapHeight: 612
OS2XHeight: 536
OS2Vendor: 'GOOG'
OS2CodePages: 00000093.00000000
OS2UnicodeRanges: 80008003.02002040.00000200.00000000
Lookup: 4 0 0 "Ligature Substitution lookup 0" { "Ligature Substitution lookup 0 subtable"  } []
Lookup: 4 0 0 "Ligature Substitution lookup 1" { "Ligature Substitution lookup 1 subtable"  } []
Lookup: 2 0 0 "Multiple Substitution lookup 2" { "Multiple Substitution lookup 2 subtable"  } []
Lookup: 4 0 0 "Ligature Substitution lookup 3" { "Ligature Substitution lookup 3 subtable"  } []
Lookup: 2 0 0 "Multiple Substitution lookup 4" { "Multiple Substitution lookup 4 subtable"  } []
Lookup: 1 0 0 "Single Substitution lookup 5" { "Single Substitution lookup 5 subtable"  } []
Lookup: 1 0 0 "Single Substitution lookup 6" { "Single Substitution lookup 6 subtable"  } []
Lookup: 1 0 0 "Single Substitution lookup 7" { "Single Substitution lookup 7 subtable"  } []

StartChar: exclam.sinh
Encoding: 33 33 3
Width: 289
Flags: W
LayerCount: 2
Fore
SplineSet
173 201 m 1,0,-1
 116 201 l 1,1,-1
 94 714 l 1,2,-1
 195 714 l 1,3,-1
 173 201 l 1,0,-1
84 55 m 0,4,5
 84 90 84 90 101.5 104.5 c 128,-1,6
 119 119 119 119 144 119 c 0,7,8
 167 119 167 119 185 104.5 c 128,-1,9
 203 90 203 90 203 55 c 0,10,11
 203 21 203 21 185 5.5 c 128,-1,12
 167 -10 167 -10 144 -10 c 0,13,14
 119 -10 119 -10 101.5 5.5 c 128,-1,15
 84 21 84 21 84 55 c 0,4,5
EndSplineSet
Validated: 1
EndChar

StartChar: quotedbl.sinh
Encoding: 34 34 4
Width: 414
Flags: W
LayerCount: 2
Fore
SplineSet
166 799 m 1,0,-1
 146 542 l 1,1,-1
 85 542 l 1,2,-1
 65 799 l 1,3,-1
 166 799 l 1,0,-1
349 799 m 1,4,-1
 329 542 l 1,5,-1
 268 542 l 1,6,-1
 248 799 l 1,7,-1
 349 799 l 1,4,-1
EndSplineSet
Validated: 1
EndChar

StartChar: numbersign.sinh
Encoding: 35 35 5
Width: 646
Flags: W
LayerCount: 2
Fore
SplineSet
481 443 m 1,0,-1
 450 278 l 1,1,-1
 586 278 l 1,2,-1
 586 214 l 1,3,-1
 437 214 l 1,4,-1
 395 0 l 1,5,-1
 327 0 l 1,6,-1
 369 214 l 1,7,-1
 220 214 l 1,8,-1
 180 0 l 1,9,-1
 112 0 l 1,10,-1
 152 214 l 1,11,-1
 25 214 l 1,12,-1
 25 278 l 1,13,-1
 165 278 l 1,14,-1
 197 443 l 1,15,-1
 62 443 l 1,16,-1
 62 507 l 1,17,-1
 209 507 l 1,18,-1
 248 714 l 1,19,-1
 317 714 l 1,20,-1
 278 507 l 1,21,-1
 428 507 l 1,22,-1
 466 714 l 1,23,-1
 535 714 l 1,24,-1
 494 507 l 1,25,-1
 620 507 l 1,26,-1
 620 443 l 1,27,-1
 481 443 l 1,0,-1
232 278 m 1,28,-1
 381 278 l 1,29,-1
 414 443 l 1,30,-1
 265 443 l 1,31,-1
 232 278 l 1,28,-1
EndSplineSet
Validated: 1
EndChar

StartChar: percent.sinh
Encoding: 37 37 6
Width: 831
Flags: W
LayerCount: 2
Fore
SplineSet
49 501 m 256,0,1
 49 607 49 607 84 665.5 c 128,-1,2
 119 724 119 724 195 724 c 0,3,4
 269 724 269 724 307 665.5 c 128,-1,5
 345 607 345 607 345 501 c 256,6,7
 345 395 345 395 308.5 335.5 c 128,-1,8
 272 276 272 276 195 276 c 0,9,10
 124 276 124 276 86.5 335.5 c 128,-1,11
 49 395 49 395 49 501 c 256,0,1
119 501 m 256,12,13
 119 421 119 421 137 380 c 128,-1,14
 155 339 155 339 195 339 c 0,15,16
 236 339 236 339 255.5 379.5 c 128,-1,17
 275 420 275 420 275 501 c 0,18,19
 275 581 275 581 255.5 621 c 128,-1,20
 236 661 236 661 195 661 c 0,21,22
 155 661 155 661 137 621 c 128,-1,23
 119 581 119 581 119 501 c 256,12,13
652 714 m 1,24,-1
 256 0 l 1,25,-1
 179 0 l 1,26,-1
 575 714 l 1,27,-1
 652 714 l 1,24,-1
486 215 m 256,28,29
 486 321 486 321 521 379.5 c 128,-1,30
 556 438 556 438 632 438 c 0,31,32
 705 438 705 438 743.5 379.5 c 128,-1,33
 782 321 782 321 782 215 c 256,34,35
 782 109 782 109 745.5 49.5 c 128,-1,36
 709 -10 709 -10 632 -10 c 0,37,38
 561 -10 561 -10 523.5 49.5 c 128,-1,39
 486 109 486 109 486 215 c 256,28,29
556 215 m 0,40,41
 556 134 556 134 574 93.5 c 128,-1,42
 592 53 592 53 632 53 c 0,43,44
 673 53 673 53 692.5 93 c 128,-1,45
 712 133 712 133 712 215 c 0,46,47
 712 295 712 295 692.5 335 c 128,-1,48
 673 375 673 375 632 375 c 0,49,50
 592 375 592 375 574 335 c 128,-1,51
 556 295 556 295 556 215 c 0,40,41
EndSplineSet
Validated: 1
EndChar

StartChar: quotesingle.sinh
Encoding: 39 39 7
Width: 231
Flags: W
LayerCount: 2
Fore
SplineSet
166 800 m 1,0,-1
 146 542 l 1,1,-1
 85 542 l 1,2,-1
 65 800 l 1,3,-1
 166 800 l 1,0,-1
EndSplineSet
Validated: 1
EndChar

StartChar: parenleft.sinh
Encoding: 40 40 8
Width: 314
Flags: W
LayerCount: 2
Fore
SplineSet
55 287 m 0,0,1
 55 382 55 382 72.5 475 c 128,-1,2
 90 568 90 568 123.5 651 c 128,-1,3
 157 734 157 734 204 799 c 1,4,-1
 285 799 l 1,5,6
 211 690 211 690 173 560.5 c 128,-1,7
 135 431 135 431 135 288 c 0,8,9
 135 144 135 144 173 18.5 c 128,-1,10
 211 -107 211 -107 284 -216 c 1,11,-1
 204 -216 l 1,12,13
 153 -148 153 -148 120 -64 c 128,-1,14
 87 20 87 20 71 110 c 128,-1,15
 55 200 55 200 55 287 c 0,0,1
EndSplineSet
Validated: 1
EndChar

StartChar: parenright.sinh
Encoding: 41 41 9
Width: 314
Flags: W
LayerCount: 2
Fore
SplineSet
260 296 m 0,0,1
 260 201 260 201 242 108 c 128,-1,2
 224 15 224 15 190.5 -67.5 c 128,-1,3
 157 -150 157 -150 110 -216 c 1,4,-1
 30 -216 l 1,5,6
 104 -107 104 -107 141.5 22.5 c 128,-1,7
 179 152 179 152 179 295 c 0,8,9
 179 439 179 439 141.5 564.5 c 128,-1,10
 104 690 104 690 31 799 c 1,11,-1
 110 799 l 1,12,13
 162 731 162 731 195 647 c 128,-1,14
 228 563 228 563 244 473 c 128,-1,15
 260 383 260 383 260 296 c 0,0,1
EndSplineSet
Validated: 1
EndChar

StartChar: asterisk.sinh
Encoding: 42 42 10
Width: 551
Flags: W
LayerCount: 2
Fore
SplineSet
320 799 m 1,0,-1
 301 613 l 1,1,-1
 487 666 l 1,2,-1
 501 576 l 1,3,-1
 323 562 l 1,4,-1
 438 409 l 1,5,-1
 354 363 l 1,6,-1
 272 533 l 1,7,-1
 197 363 l 1,8,-1
 111 409 l 1,9,-1
 225 562 l 1,10,-1
 48 576 l 1,11,-1
 62 666 l 1,12,-1
 246 613 l 1,13,-1
 226 799 l 1,14,-1
 320 799 l 1,0,-1
EndSplineSet
Validated: 1
EndChar

StartChar: plus.sinh
Encoding: 43 43 11
Width: 572
Flags: W
LayerCount: 2
Fore
SplineSet
249 317 m 1,0,-1
 50 317 l 1,1,-1
 50 388 l 1,2,-1
 249 388 l 1,3,-1
 249 595 l 1,4,-1
 321 595 l 1,5,-1
 321 388 l 1,6,-1
 520 388 l 1,7,-1
 520 317 l 1,8,-1
 321 317 l 1,9,-1
 321 111 l 1,10,-1
 249 111 l 1,11,-1
 249 317 l 1,0,-1
EndSplineSet
Validated: 1
EndChar

StartChar: comma.sinh
Encoding: 44 44 12
Width: 268
Flags: W
LayerCount: 2
Fore
SplineSet
195 116 m 1,0,-1
 202 105 l 1,1,2
 193 70 193 70 179 29 c 128,-1,3
 165 -12 165 -12 148.5 -52.5 c 128,-1,4
 132 -93 132 -93 116 -129 c 1,5,-1
 51 -129 l 1,6,7
 61 -91 61 -91 71.5 -47.5 c 128,-1,8
 82 -4 82 -4 90.5 38.5 c 128,-1,9
 99 81 99 81 104 116 c 1,10,-1
 195 116 l 1,0,-1
EndSplineSet
Validated: 1
EndChar

StartChar: hyphen.sinh
Encoding: 45 45 13
Width: 322
Flags: W
LayerCount: 2
Fore
SplineSet
40 279 m 1,0,-1
 40 353 l 1,1,-1
 282 353 l 1,2,-1
 282 279 l 1,3,-1
 40 279 l 1,0,-1
EndSplineSet
Validated: 1
EndChar

StartChar: period.sinh
Encoding: 46 46 14
Width: 268
Flags: W
LayerCount: 2
Fore
SplineSet
75 55 m 0,0,1
 75 90 75 90 92 104.5 c 128,-1,2
 109 119 109 119 133 119 c 0,3,4
 158 119 158 119 175.5 104.5 c 128,-1,5
 193 90 193 90 193 55 c 0,6,7
 193 21 193 21 175.5 5.5 c 128,-1,8
 158 -10 158 -10 133 -10 c 0,9,10
 109 -10 109 -10 92 5.5 c 128,-1,11
 75 21 75 21 75 55 c 0,0,1
EndSplineSet
Validated: 1
EndChar

StartChar: slash.sinh
Encoding: 47 47 15
Width: 424
Flags: W
LayerCount: 2
Fore
SplineSet
388 799 m 1,0,-1
 114 -216 l 1,1,-1
 36 -216 l 1,2,-1
 311 799 l 1,3,-1
 388 799 l 1,0,-1
EndSplineSet
Validated: 1
EndChar

StartChar: zero.sinh
Encoding: 48 48 16
Width: 572
Flags: W
LayerCount: 2
Fore
SplineSet
523 358 m 0,0,1
 523 271 523 271 510 203 c 128,-1,2
 497 135 497 135 468.5 87.5 c 128,-1,3
 440 40 440 40 394.5 15 c 128,-1,4
 349 -10 349 -10 285 -10 c 0,5,6
 205 -10 205 -10 152.5 34 c 128,-1,7
 100 78 100 78 74.5 160.5 c 128,-1,8
 49 243 49 243 49 358 c 0,9,10
 49 474 49 474 72.5 556 c 128,-1,11
 96 638 96 638 148 681.5 c 128,-1,12
 200 725 200 725 285 725 c 0,13,14
 365 725 365 725 418 681.5 c 128,-1,15
 471 638 471 638 497 556 c 128,-1,16
 523 474 523 474 523 358 c 0,0,1
132 358 m 256,17,18
 132 258 132 258 146.5 191.5 c 128,-1,19
 161 125 161 125 195 92 c 128,-1,20
 229 59 229 59 285 59 c 256,21,22
 341 59 341 59 375 92 c 128,-1,23
 409 125 409 125 424.5 191.5 c 128,-1,24
 440 258 440 258 440 358 c 256,25,26
 440 458 440 458 424.5 524 c 128,-1,27
 409 590 409 590 375 623 c 128,-1,28
 341 656 341 656 285 656 c 256,29,30
 229 656 229 656 195 623 c 128,-1,31
 161 590 161 590 146.5 524 c 128,-1,32
 132 458 132 458 132 358 c 256,17,18
EndSplineSet
Validated: 1
EndChar

StartChar: one.sinh
Encoding: 49 49 17
Width: 572
Flags: W
LayerCount: 2
Fore
SplineSet
353 0 m 1,0,-1
 272 0 l 1,1,-1
 272 501 l 2,2,3
 272 544 272 544 273 570 c 128,-1,4
 274 596 274 596 276 624 c 1,5,6
 260 608 260 608 247 597 c 128,-1,7
 234 586 234 586 214 569 c 2,8,-1
 138 507 l 1,9,-1
 92 564 l 1,10,-1
 286 714 l 1,11,-1
 353 714 l 1,12,-1
 353 0 l 1,0,-1
EndSplineSet
Validated: 1
EndChar

StartChar: two.sinh
Encoding: 50 50 18
Width: 572
Flags: W
LayerCount: 2
Fore
SplineSet
520 0 m 1,0,-1
 48 0 l 1,1,-1
 48 68 l 1,2,-1
 238 261 l 2,3,4
 293 316 293 316 330.5 359 c 128,-1,5
 368 402 368 402 387.5 442.5 c 128,-1,6
 407 483 407 483 407 532 c 0,7,8
 407 572 407 572 390.5 599.5 c 128,-1,9
 374 627 374 627 345 641 c 128,-1,10
 316 655 316 655 277 655 c 0,11,12
 223 655 223 655 182 637 c 128,-1,13
 141 619 141 619 99 587 c 1,14,-1
 56 640 l 1,15,16
 84 664 84 664 117.5 683 c 128,-1,17
 151 702 151 702 190.5 713 c 128,-1,18
 230 724 230 724 275 724 c 0,19,20
 342 724 342 724 390 701 c 128,-1,21
 438 678 438 678 464.5 635 c 128,-1,22
 491 592 491 592 491 532 c 0,23,24
 491 476 491 476 468 426.5 c 128,-1,25
 445 377 445 377 404 329 c 128,-1,26
 363 281 363 281 308 227 c 2,27,-1
 159 78 l 1,28,-1
 159 74 l 1,29,-1
 520 74 l 1,30,-1
 520 0 l 1,0,-1
EndSplineSet
Validated: 1
EndChar

StartChar: three.sinh
Encoding: 51 51 19
Width: 572
Flags: W
LayerCount: 2
Fore
SplineSet
493 547 m 0,0,1
 493 499 493 499 475 464 c 128,-1,2
 457 429 457 429 423.5 407 c 128,-1,3
 390 385 390 385 345 376 c 1,4,-1
 345 372 l 1,5,6
 431 362 431 362 473 318 c 128,-1,7
 515 274 515 274 515 203 c 0,8,9
 515 141 515 141 486 92.5 c 128,-1,10
 457 44 457 44 396.5 17 c 128,-1,11
 336 -10 336 -10 241 -10 c 0,12,13
 185 -10 185 -10 137 -1.5 c 128,-1,14
 89 7 89 7 45 29 c 1,15,-1
 45 106 l 1,16,17
 91 84 91 84 143.5 72 c 128,-1,18
 196 60 196 60 245 60 c 0,19,20
 343 60 343 60 386 98.5 c 128,-1,21
 429 137 429 137 429 204 c 0,22,23
 429 250 429 250 405 278.5 c 128,-1,24
 381 307 381 307 335.5 320.5 c 128,-1,25
 290 334 290 334 225 334 c 2,26,-1
 154 334 l 1,27,-1
 154 403 l 1,28,-1
 226 403 l 2,29,30
 286 403 286 403 326.5 420.5 c 128,-1,31
 367 438 367 438 388 469.5 c 128,-1,32
 409 501 409 501 409 543 c 0,33,34
 409 596 409 596 373.5 625.5 c 128,-1,35
 338 655 338 655 276 655 c 0,36,37
 215 655 215 655 172 638 c 128,-1,38
 129 621 129 621 88 595 c 1,39,-1
 49 650 l 1,40,41
 87 680 87 680 143.5 702 c 128,-1,42
 200 724 200 724 272 724 c 0,43,44
 384 724 384 724 438.5 674 c 128,-1,45
 493 624 493 624 493 547 c 0,0,1
EndSplineSet
Validated: 1
EndChar

StartChar: four.sinh
Encoding: 52 52 20
Width: 572
Flags: W
LayerCount: 2
Fore
SplineSet
552 168 m 1,0,-1
 445 168 l 1,1,-1
 445 0 l 1,2,-1
 365 0 l 1,3,-1
 365 168 l 1,4,-1
 21 168 l 1,5,-1
 21 235 l 1,6,-1
 357 718 l 1,7,-1
 445 718 l 1,8,-1
 445 239 l 1,9,-1
 552 239 l 1,10,-1
 552 168 l 1,0,-1
365 239 m 1,11,-1
 365 471 l 2,12,13
 365 506 365 506 366 533 c 128,-1,14
 367 560 367 560 368.5 583.5 c 128,-1,15
 370 607 370 607 371 629 c 1,16,-1
 366 629 l 1,17,18
 358 610 358 610 345 585.5 c 128,-1,19
 332 561 332 561 321 546 c 2,20,-1
 106 239 l 1,21,-1
 365 239 l 1,11,-1
EndSplineSet
Validated: 1
EndChar

StartChar: five.sinh
Encoding: 53 53 21
Width: 572
Flags: W
LayerCount: 2
Fore
SplineSet
271 436 m 0,0,1
 345 436 345 436 400 411.5 c 128,-1,2
 455 387 455 387 485 340 c 128,-1,3
 515 293 515 293 515 227 c 0,4,5
 515 154 515 154 483 100.5 c 128,-1,6
 451 47 451 47 391.5 18.5 c 128,-1,7
 332 -10 332 -10 248 -10 c 0,8,9
 193 -10 193 -10 144.5 0 c 128,-1,10
 96 10 96 10 63 29 c 1,11,-1
 63 107 l 1,12,13
 100 85 100 85 152 72.5 c 128,-1,14
 204 60 204 60 252 60 c 0,15,16
 306 60 306 60 346 77 c 128,-1,17
 386 94 386 94 408.5 129 c 128,-1,18
 431 164 431 164 431 218 c 0,19,20
 431 289 431 289 387.5 327.5 c 128,-1,21
 344 366 344 366 249 366 c 0,22,23
 219 366 219 366 182.5 361.5 c 128,-1,24
 146 357 146 357 124 352 c 1,25,-1
 80 379 l 1,26,-1
 107 714 l 1,27,-1
 465 714 l 1,28,-1
 465 642 l 1,29,-1
 178 642 l 1,30,-1
 159 424 l 1,31,32
 177 428 177 428 206 432 c 128,-1,33
 235 436 235 436 271 436 c 0,0,1
EndSplineSet
Validated: 1
EndChar

StartChar: six.sinh
Encoding: 54 54 22
Width: 572
Flags: W
LayerCount: 2
Fore
SplineSet
55 305 m 0,0,1
 55 367 55 367 63.5 427 c 128,-1,2
 72 487 72 487 93 540.5 c 128,-1,3
 114 594 114 594 151 635.5 c 128,-1,4
 188 677 188 677 244.5 700.5 c 128,-1,5
 301 724 301 724 382 724 c 0,6,7
 403 724 403 724 428.5 722 c 128,-1,8
 454 720 454 720 470 715 c 1,9,-1
 470 643 l 1,10,11
 451 649 451 649 428 652 c 128,-1,12
 405 655 405 655 382 655 c 0,13,14
 312 655 312 655 265.5 632 c 128,-1,15
 219 609 219 609 191.5 568.5 c 128,-1,16
 164 528 164 528 152 475 c 128,-1,17
 140 422 140 422 137 363 c 1,18,-1
 143 363 l 1,19,20
 159 387 159 387 182.5 406 c 128,-1,21
 206 425 206 425 238.5 436 c 128,-1,22
 271 447 271 447 314 447 c 0,23,24
 377 447 377 447 424.5 421.5 c 128,-1,25
 472 396 472 396 498.5 347.5 c 128,-1,26
 525 299 525 299 525 230 c 0,27,28
 525 156 525 156 497 102 c 128,-1,29
 469 48 469 48 418.5 19 c 128,-1,30
 368 -10 368 -10 298 -10 c 0,31,32
 247 -10 247 -10 203 9 c 128,-1,33
 159 28 159 28 125.5 67 c 128,-1,34
 92 106 92 106 73.5 165.5 c 128,-1,35
 55 225 55 225 55 305 c 0,0,1
297 60 m 0,36,37
 362 60 362 60 403 101.5 c 128,-1,38
 444 143 444 143 444 228 c 0,39,40
 444 297 444 297 408 337.5 c 128,-1,41
 372 378 372 378 300 378 c 0,42,43
 252 378 252 378 215.5 358 c 128,-1,44
 179 338 179 338 158.5 307.5 c 128,-1,45
 138 277 138 277 138 245 c 0,46,47
 138 212 138 212 148 179 c 128,-1,48
 158 146 158 146 178 119.5 c 128,-1,49
 198 93 198 93 228 76.5 c 128,-1,50
 258 60 258 60 297 60 c 0,36,37
EndSplineSet
Validated: 1
EndChar

StartChar: seven.sinh
Encoding: 55 55 23
Width: 572
Flags: W
LayerCount: 2
Fore
SplineSet
136 0 m 1,0,-1
 436 640 l 1,1,-1
 44 640 l 1,2,-1
 44 714 l 1,3,-1
 523 714 l 1,4,-1
 523 649 l 1,5,-1
 227 0 l 1,6,-1
 136 0 l 1,0,-1
EndSplineSet
Validated: 1
EndChar

StartChar: eight.sinh
Encoding: 56 56 24
Width: 572
Flags: W
LayerCount: 2
Fore
SplineSet
285 724 m 0,0,1
 348 724 348 724 396 704.5 c 128,-1,2
 444 685 444 685 471.5 647 c 128,-1,3
 499 609 499 609 499 553 c 0,4,5
 499 510 499 510 480.5 478 c 128,-1,6
 462 446 462 446 431 421.5 c 128,-1,7
 400 397 400 397 363 378 c 1,8,9
 407 357 407 357 443 330.5 c 128,-1,10
 479 304 479 304 500.5 269 c 128,-1,11
 522 234 522 234 522 185 c 0,12,13
 522 125 522 125 493 81.5 c 128,-1,14
 464 38 464 38 411.5 14 c 128,-1,15
 359 -10 359 -10 288 -10 c 0,16,17
 211 -10 211 -10 157.5 13 c 128,-1,18
 104 36 104 36 76.5 78.5 c 128,-1,19
 49 121 49 121 49 182 c 0,20,21
 49 231 49 231 69.5 267 c 128,-1,22
 90 303 90 303 124 329 c 128,-1,23
 158 355 158 355 197 373 c 1,24,25
 162 393 162 393 133.5 418.5 c 128,-1,26
 105 444 105 444 88.5 477 c 128,-1,27
 72 510 72 510 72 554 c 0,28,29
 72 609 72 609 100 646.5 c 128,-1,30
 128 684 128 684 176 704 c 128,-1,31
 224 724 224 724 285 724 c 0,0,1
131 181 m 0,32,33
 131 128 131 128 169 93 c 128,-1,34
 207 58 207 58 286 58 c 0,35,36
 360 58 360 58 399.5 93 c 128,-1,37
 439 128 439 128 439 184 c 0,38,39
 439 217 439 217 421 244 c 128,-1,40
 403 271 403 271 369 292.5 c 128,-1,41
 335 314 335 314 287 332 c 2,42,-1
 270 338 l 1,43,44
 225 319 225 319 194 296.5 c 128,-1,45
 163 274 163 274 147 246 c 128,-1,46
 131 218 131 218 131 181 c 0,32,33
284 655 m 0,47,48
 227 655 227 655 191 628 c 128,-1,49
 155 601 155 601 155 550 c 0,50,51
 155 513 155 513 173 488 c 128,-1,52
 191 463 191 463 221.5 445 c 128,-1,53
 252 427 252 427 289 411 c 1,54,55
 325 426 325 426 353.5 444.5 c 128,-1,56
 382 463 382 463 399 488.5 c 128,-1,57
 416 514 416 514 416 550 c 0,58,59
 416 601 416 601 379.5 628 c 128,-1,60
 343 655 343 655 284 655 c 0,47,48
EndSplineSet
Validated: 1
EndChar

StartChar: nine.sinh
Encoding: 57 57 25
Width: 572
Flags: W
LayerCount: 2
Fore
SplineSet
520 409 m 0,0,1
 520 348 520 348 511.5 287.5 c 128,-1,2
 503 227 503 227 482 173.5 c 128,-1,3
 461 120 461 120 424 78.5 c 128,-1,4
 387 37 387 37 330 13.5 c 128,-1,5
 273 -10 273 -10 192 -10 c 0,6,7
 172 -10 172 -10 145.5 -7.5 c 128,-1,8
 119 -5 119 -5 102 0 c 1,9,-1
 102 73 l 1,10,11
 120 66 120 66 144.5 63 c 128,-1,12
 169 60 169 60 191 60 c 0,13,14
 262 60 262 60 309 83 c 128,-1,15
 356 106 356 106 383 146 c 128,-1,16
 410 186 410 186 422.5 238.5 c 128,-1,17
 435 291 435 291 437 350 c 1,18,-1
 431 350 l 1,19,20
 416 327 416 327 392 308.5 c 128,-1,21
 368 290 368 290 335 279 c 128,-1,22
 302 268 302 268 258 268 c 0,23,24
 196 268 196 268 149 293 c 128,-1,25
 102 318 102 318 76 366 c 128,-1,26
 50 414 50 414 50 483 c 0,27,28
 50 558 50 558 78.5 612 c 128,-1,29
 107 666 107 666 158 695 c 128,-1,30
 209 724 209 724 278 724 c 0,31,32
 329 724 329 724 373 704.5 c 128,-1,33
 417 685 417 685 450 646 c 128,-1,34
 483 607 483 607 501.5 548 c 128,-1,35
 520 489 520 489 520 409 c 0,0,1
277 655 m 0,36,37
 213 655 213 655 172 613.5 c 128,-1,38
 131 572 131 572 131 486 c 0,39,40
 131 417 131 417 166 376.5 c 128,-1,41
 201 336 201 336 273 336 c 0,42,43
 324 336 324 336 360.5 355.5 c 128,-1,44
 397 375 397 375 417 406 c 128,-1,45
 437 437 437 437 437 469 c 0,46,47
 437 502 437 502 427 535 c 128,-1,48
 417 568 417 568 397 595 c 128,-1,49
 377 622 377 622 347 638.5 c 128,-1,50
 317 655 317 655 277 655 c 0,36,37
EndSplineSet
Validated: 1
EndChar

StartChar: colon.sinh
Encoding: 58 58 26
Width: 287
Flags: W
LayerCount: 2
Fore
SplineSet
84 55 m 0,0,1
 84 90 84 90 101 104.5 c 128,-1,2
 118 119 118 119 143 119 c 0,3,4
 167 119 167 119 185 104.5 c 128,-1,5
 203 90 203 90 203 55 c 0,6,7
 203 21 203 21 185 5.5 c 128,-1,8
 167 -10 167 -10 143 -10 c 0,9,10
 118 -10 118 -10 101 5.5 c 128,-1,11
 84 21 84 21 84 55 c 0,0,1
84 469 m 0,12,13
 84 505 84 505 101 519.5 c 128,-1,14
 118 534 118 534 143 534 c 0,15,16
 167 534 167 534 185 519.5 c 128,-1,17
 203 505 203 505 203 469 c 0,18,19
 203 435 203 435 185 419.5 c 128,-1,20
 167 404 167 404 143 404 c 0,21,22
 118 404 118 404 101 419.5 c 128,-1,23
 84 435 84 435 84 469 c 0,12,13
EndSplineSet
Validated: 1
EndChar

StartChar: semicolon.sinh
Encoding: 59 59 27
Width: 287
Flags: W
LayerCount: 2
Fore
SplineSet
196 100 m 1,0,-1
 203 89 l 1,1,2
 194 54 194 54 180 13 c 128,-1,3
 166 -28 166 -28 149.5 -68.5 c 128,-1,4
 133 -109 133 -109 117 -145 c 1,5,-1
 51 -145 l 1,6,7
 61 -107 61 -107 71.5 -63.5 c 128,-1,8
 82 -20 82 -20 91.5 22.5 c 128,-1,9
 101 65 101 65 106 100 c 1,10,-1
 196 100 l 1,0,-1
84 469 m 0,11,12
 84 505 84 505 101 519.5 c 128,-1,13
 118 534 118 534 142 534 c 0,14,15
 168 534 168 534 185 519.5 c 128,-1,16
 202 505 202 505 202 469 c 0,17,18
 202 435 202 435 185 419.5 c 128,-1,19
 168 404 168 404 142 404 c 0,20,21
 118 404 118 404 101 419.5 c 128,-1,22
 84 435 84 435 84 469 c 0,11,12
EndSplineSet
Validated: 1
EndChar

StartChar: less.sinh
Encoding: 60 60 28
Width: 572
Flags: W
LayerCount: 2
Fore
SplineSet
521 116 m 1,0,-1
 50 323 l 1,1,-1
 50 373 l 1,2,-1
 521 608 l 1,3,-1
 521 530 l 1,4,-1
 144 352 l 1,5,-1
 521 194 l 1,6,-1
 521 116 l 1,0,-1
EndSplineSet
Validated: 1
EndChar

StartChar: equal.sinh
Encoding: 61 61 29
Width: 572
Flags: W
LayerCount: 2
Fore
SplineSet
56 416 m 1,0,-1
 56 487 l 1,1,-1
 514 487 l 1,2,-1
 514 416 l 1,3,-1
 56 416 l 1,0,-1
56 217 m 1,4,-1
 56 288 l 1,5,-1
 514 288 l 1,6,-1
 514 217 l 1,7,-1
 56 217 l 1,4,-1
EndSplineSet
Validated: 1
EndChar

StartChar: greater.sinh
Encoding: 62 62 30
Width: 572
Flags: W
LayerCount: 2
Fore
SplineSet
50 194 m 1,0,-1
 427 351 l 1,1,-1
 50 530 l 1,2,-1
 50 608 l 1,3,-1
 521 373 l 1,4,-1
 521 323 l 1,5,-1
 50 116 l 1,6,-1
 50 194 l 1,0,-1
EndSplineSet
Validated: 1
EndChar

StartChar: question.sinh
Encoding: 63 63 31
Width: 454
Flags: W
LayerCount: 2
Fore
SplineSet
148 201 m 1,0,-1
 148 228 l 2,1,2
 148 266 148 266 156 293.5 c 128,-1,3
 164 321 164 321 183 345.5 c 128,-1,4
 202 370 202 370 235 398 c 0,5,6
 275 431 275 431 297 453.5 c 128,-1,7
 319 476 319 476 328.5 498 c 128,-1,8
 338 520 338 520 338 550 c 0,9,10
 338 600 338 600 306 626.5 c 128,-1,11
 274 653 274 653 215 653 c 0,12,13
 164 653 164 653 124 640.5 c 128,-1,14
 84 628 84 628 49 611 c 1,15,-1
 21 675 l 1,16,17
 60 696 60 696 108.5 710 c 128,-1,18
 157 724 157 724 217 724 c 0,19,20
 312 724 312 724 364.5 677 c 128,-1,21
 417 630 417 630 417 549 c 0,22,23
 417 504 417 504 402.5 472.5 c 128,-1,24
 388 441 388 441 361 414.5 c 128,-1,25
 334 388 334 388 298 358 c 0,26,27
 265 330 265 330 247.5 309 c 128,-1,28
 230 288 230 288 224 267.5 c 128,-1,29
 218 247 218 247 218 218 c 2,30,-1
 218 201 l 1,31,-1
 148 201 l 1,0,-1
128 55 m 0,32,33
 128 90 128 90 145 104.5 c 128,-1,34
 162 119 162 119 187 119 c 0,35,36
 211 119 211 119 228.5 104.5 c 128,-1,37
 246 90 246 90 246 55 c 0,38,39
 246 21 246 21 228.5 5.5 c 128,-1,40
 211 -10 211 -10 187 -10 c 0,41,42
 162 -10 162 -10 145 5.5 c 128,-1,43
 128 21 128 21 128 55 c 0,32,33
EndSplineSet
Validated: 1
EndChar

StartChar: bracketleft.sinh
Encoding: 91 91 32
Width: 329
Flags: W
LayerCount: 2
Fore
SplineSet
304 -158 m 1,0,-1
 80 -158 l 1,1,-1
 80 714 l 1,2,-1
 304 714 l 1,3,-1
 304 642 l 1,4,-1
 166 642 l 1,5,-1
 166 -86 l 1,6,-1
 304 -86 l 1,7,-1
 304 -158 l 1,0,-1
EndSplineSet
Validated: 1
EndChar

StartChar: backslash.sinh
Encoding: 92 92 33
Width: 372
Flags: W
LayerCount: 2
Fore
SplineSet
96 714 m 1,0,-1
 363 0 l 1,1,-1
 276 0 l 1,2,-1
 10 714 l 1,3,-1
 96 714 l 1,0,-1
EndSplineSet
Validated: 1
EndChar

StartChar: bracketright.sinh
Encoding: 93 93 34
Width: 329
Flags: W
LayerCount: 2
Fore
SplineSet
25 -86 m 1,0,-1
 163 -86 l 1,1,-1
 163 642 l 1,2,-1
 25 642 l 1,3,-1
 25 714 l 1,4,-1
 249 714 l 1,5,-1
 249 -158 l 1,6,-1
 25 -158 l 1,7,-1
 25 -86 l 1,0,-1
EndSplineSet
Validated: 1
EndChar

StartChar: asciicircum.sinh
Encoding: 94 94 35
Width: 572
Flags: W
LayerCount: 2
Fore
SplineSet
38 267 m 1,0,-1
 250 719 l 1,1,-1
 300 719 l 1,2,-1
 534 267 l 1,3,-1
 456 267 l 1,4,-1
 276 626 l 1,5,-1
 116 267 l 1,6,-1
 38 267 l 1,0,-1
EndSplineSet
Validated: 1
EndChar

StartChar: underscore.sinh
Encoding: 95 95 36
Width: 444
Flags: W
LayerCount: 2
Fore
SplineSet
446 -154 m 1,0,-1
 -2 -154 l 1,1,-1
 -2 -90 l 1,2,-1
 446 -90 l 1,3,-1
 446 -154 l 1,0,-1
EndSplineSet
Validated: 1
EndChar

StartChar: braceleft.sinh
Encoding: 123 123 37
Width: 380
Flags: W
LayerCount: 2
Fore
SplineSet
348 -158 m 1,0,1
 287 -157 287 -157 242.5 -140 c 128,-1,2
 198 -123 198 -123 174 -87.5 c 128,-1,3
 150 -52 150 -52 150 1 c 2,4,-1
 150 148 l 2,5,6
 150 182 150 182 136 202.5 c 128,-1,7
 122 223 122 223 95 232.5 c 128,-1,8
 68 242 68 242 28 242 c 1,9,-1
 28 315 l 1,10,11
 68 316 68 316 95 325 c 128,-1,12
 122 334 122 334 136 354.5 c 128,-1,13
 150 375 150 375 150 408 c 2,14,-1
 150 556 l 2,15,16
 150 609 150 609 175 644 c 128,-1,17
 200 679 200 679 245 696.5 c 128,-1,18
 290 714 290 714 348 714 c 1,19,-1
 348 642 l 1,20,21
 314 641 314 641 289 631 c 128,-1,22
 264 621 264 621 250.5 601 c 128,-1,23
 237 581 237 581 237 548 c 2,24,-1
 237 404 l 2,25,26
 237 353 237 353 210 322.5 c 128,-1,27
 183 292 183 292 128 282 c 1,28,-1
 128 276 l 1,29,30
 184 266 184 266 210.5 235.5 c 128,-1,31
 237 205 237 205 237 154 c 2,32,-1
 237 7 l 2,33,34
 237 -25 237 -25 250 -45.5 c 128,-1,35
 263 -66 263 -66 288 -75.5 c 128,-1,36
 313 -85 313 -85 348 -86 c 1,37,-1
 348 -158 l 1,0,1
EndSplineSet
Validated: 1
EndChar

StartChar: bar.sinh
Encoding: 124 124 38
Width: 551
Flags: W
LayerCount: 2
Fore
SplineSet
239 760 m 1,0,-1
 312 760 l 1,1,-1
 312 -241 l 1,2,-1
 239 -241 l 1,3,-1
 239 760 l 1,0,-1
EndSplineSet
Validated: 1
EndChar

StartChar: braceright.sinh
Encoding: 125 125 39
Width: 380
Flags: W
LayerCount: 2
Fore
SplineSet
32 -86 m 1,0,1
 67 -85 67 -85 91.5 -75 c 128,-1,2
 116 -65 116 -65 129.5 -44.5 c 128,-1,3
 143 -24 143 -24 143 8 c 2,4,-1
 143 153 l 2,5,6
 143 204 143 204 170 234.5 c 128,-1,7
 197 265 197 265 252 275 c 1,8,-1
 252 281 l 1,9,10
 197 291 197 291 170 321.5 c 128,-1,11
 143 352 143 352 143 403 c 2,12,-1
 143 549 l 2,13,14
 143 582 143 582 130 602 c 128,-1,15
 117 622 117 622 92.5 632 c 128,-1,16
 68 642 68 642 32 642 c 1,17,-1
 32 714 l 1,18,19
 94 714 94 714 138 696.5 c 128,-1,20
 182 679 182 679 206 644 c 128,-1,21
 230 609 230 609 230 555 c 2,22,-1
 230 409 l 2,23,24
 230 375 230 375 244 354.5 c 128,-1,25
 258 334 258 334 285.5 324.5 c 128,-1,26
 313 315 313 315 352 315 c 1,27,-1
 352 242 l 1,28,29
 313 242 313 242 285.5 232.5 c 128,-1,30
 258 223 258 223 244 203 c 128,-1,31
 230 183 230 183 230 149 c 2,32,-1
 230 0 l 2,33,34
 230 -53 230 -53 205 -88 c 128,-1,35
 180 -123 180 -123 135.5 -140.5 c 128,-1,36
 91 -158 91 -158 32 -158 c 1,37,-1
 32 -86 l 1,0,1
EndSplineSet
Validated: 1
EndChar

StartChar: asciitilde.sinh
Encoding: 126 126 40
Width: 572
Flags: W
LayerCount: 2
Fore
SplineSet
269 319 m 0,0,1
 233 335 233 335 209.5 340.5 c 128,-1,2
 186 346 186 346 164 346 c 0,3,4
 136 346 136 346 105 329 c 128,-1,5
 74 312 74 312 50 287 c 1,6,-1
 50 365 l 1,7,8
 74 391 74 391 104 404.5 c 128,-1,9
 134 418 134 418 170 418 c 0,10,11
 199 418 199 418 227.5 412 c 128,-1,12
 256 406 256 406 302 386 c 0,13,14
 338 370 338 370 361.5 364.5 c 128,-1,15
 385 359 385 359 406 359 c 0,16,17
 435 359 435 359 466 376 c 128,-1,18
 497 393 497 393 521 418 c 1,19,-1
 521 341 l 1,20,21
 497 315 497 315 467 301 c 128,-1,22
 437 287 437 287 401 287 c 0,23,24
 373 287 373 287 343.5 293.5 c 128,-1,25
 314 300 314 300 269 319 c 0,0,1
EndSplineSet
Validated: 1
EndChar

StartChar: A
Encoding: 65 65 41
Width: 625
Flags: W
LayerCount: 2
Fore
SplineSet
260 -13 m 0,0,1
 199 -13 199 -13 152 18.5 c 128,-1,2
 105 50 105 50 78.5 111.5 c 128,-1,3
 52 173 52 173 52 262 c 0,4,5
 52 356 52 356 85 421.5 c 128,-1,6
 118 487 118 487 172.5 522 c 128,-1,7
 227 557 227 557 290 557 c 0,8,9
 324 557 324 557 356.5 543 c 128,-1,10
 389 529 389 529 415.5 497.5 c 128,-1,11
 442 466 442 466 457 414 c 1,12,-1
 460 414 l 1,13,-1
 483 543 l 1,14,-1
 573 543 l 1,15,16
 562 490 562 490 550.5 431 c 128,-1,17
 539 372 539 372 528.5 314.5 c 128,-1,18
 518 257 518 257 511.5 206.5 c 128,-1,19
 505 156 505 156 505 119 c 0,20,21
 505 92 505 92 520.5 77.5 c 128,-1,22
 536 63 536 63 559 63 c 0,23,24
 568 63 568 63 578 65 c 128,-1,25
 588 67 588 67 596 71 c 1,26,-1
 609 1 l 1,27,28
 598 -4 598 -4 581 -8.5 c 128,-1,29
 564 -13 564 -13 540 -13 c 0,30,31
 492 -13 492 -13 462.5 13.5 c 128,-1,32
 433 40 433 40 433 97 c 1,33,-1
 429 97 l 1,34,35
 367 -13 367 -13 260 -13 c 0,0,1
279 64 m 0,36,37
 315 64 315 64 347.5 86.5 c 128,-1,38
 380 109 380 109 402 147.5 c 128,-1,39
 424 186 424 186 427 232 c 2,40,-1
 436 335 l 1,41,42
 424 379 424 379 408.5 407.5 c 128,-1,43
 393 436 393 436 375 452 c 128,-1,44
 357 468 357 468 337.5 474 c 128,-1,45
 318 480 318 480 299 480 c 0,46,47
 260 480 260 480 225 455.5 c 128,-1,48
 190 431 190 431 168 383 c 128,-1,49
 146 335 146 335 146 263 c 0,50,51
 146 168 146 168 181.5 116 c 128,-1,52
 217 64 217 64 279 64 c 0,36,37
EndSplineSet
EndChar

StartChar: B
Encoding: 66 66 42
Width: 576
Flags: W
LayerCount: 2
Fore
SplineSet
85 0 m 1,0,-1
 85 536 l 1,1,-1
 315 536 l 2,2,3
 372 536 372 536 417.5 523.5 c 128,-1,4
 463 511 463 511 489.5 481.5 c 128,-1,5
 516 452 516 452 516 401 c 0,6,7
 516 368 516 368 502.5 344.5 c 128,-1,8
 489 321 489 321 465 306.5 c 128,-1,9
 441 292 441 292 409 285 c 1,10,-1
 409 281 l 1,11,12
 442 277 442 277 470.5 263 c 128,-1,13
 499 249 499 249 516 223 c 128,-1,14
 533 197 533 197 533 157 c 0,15,16
 533 89 533 89 482.5 44.5 c 128,-1,17
 432 0 432 0 316 0 c 2,18,-1
 85 0 l 1,0,-1
306 71 m 2,19,20
 372 71 372 71 407 90.5 c 128,-1,21
 442 110 442 110 442 157 c 0,22,23
 442 203 442 203 407 223 c 128,-1,24
 372 243 372 243 304 243 c 2,25,-1
 173 243 l 1,26,-1
 173 71 l 1,27,-1
 306 71 l 2,19,20
294 316 m 2,28,29
 359 316 359 316 393 334 c 128,-1,30
 427 352 427 352 427 390 c 256,31,32
 427 428 427 428 399.5 445.5 c 128,-1,33
 372 463 372 463 310 463 c 2,34,-1
 173 463 l 1,35,-1
 173 316 l 1,36,-1
 294 316 l 2,28,29
EndSplineSet
Validated: 1
EndChar

StartChar: C
Encoding: 67 67 43
Width: 490
Flags: W
LayerCount: 2
Fore
SplineSet
285 737 m 0,0,1
 305 737 305 737 320.5 723.5 c 128,-1,2
 336 710 336 710 336 681 c 0,3,4
 336 653 336 653 320.5 639 c 128,-1,5
 305 625 305 625 285 625 c 0,6,7
 263 625 263 625 248 639 c 128,-1,8
 233 653 233 653 233 681 c 0,9,10
 233 710 233 710 248 723.5 c 128,-1,11
 263 737 263 737 285 737 c 0,0,1
301 -10 m 0,12,13
 183 -10 183 -10 118 57 c 128,-1,14
 53 124 53 124 53 245 c 0,15,16
 53 325 53 325 82 380.5 c 128,-1,17
 111 436 111 436 165 465 c 1,18,-1
 32 465 l 1,19,-1
 32 537 l 1,20,-1
 458 537 l 1,21,-1
 458 465 l 1,22,-1
 345 465 l 2,23,24
 251 465 251 465 197.5 411.5 c 128,-1,25
 144 358 144 358 144 252 c 0,26,27
 144 165 144 165 187 114.5 c 128,-1,28
 230 64 230 64 310 64 c 0,29,30
 347 64 347 64 381 73.5 c 128,-1,31
 415 83 415 83 447 99 c 1,32,-1
 447 21 l 1,33,34
 418 5 418 5 383 -2.5 c 128,-1,35
 348 -10 348 -10 301 -10 c 0,12,13
EndSplineSet
Validated: 1
EndChar

StartChar: D
Encoding: 68 68 44
Width: 615
Flags: W
LayerCount: 2
Fore
SplineSet
104 238 m 1,0,-1
 104 303 l 1,1,-1
 480 303 l 1,2,-1
 480 238 l 1,3,-1
 104 238 l 1,0,-1
275 -10 m 0,4,5
 175 -10 175 -10 115 59.5 c 128,-1,6
 55 129 55 129 55 267 c 256,7,8
 55 405 55 405 115.5 475.5 c 128,-1,9
 176 546 176 546 276 546 c 0,10,11
 318 546 318 546 349 535.5 c 128,-1,12
 380 525 380 525 403 507 c 128,-1,13
 426 489 426 489 442 467 c 1,14,-1
 448 467 l 1,15,16
 447 480 447 480 444.5 505.5 c 128,-1,17
 442 531 442 531 442 546 c 2,18,-1
 442 760 l 1,19,-1
 530 760 l 1,20,-1
 530 0 l 1,21,-1
 459 0 l 1,22,-1
 446 72 l 1,23,-1
 442 72 l 1,24,25
 426 49 426 49 403 30.5 c 128,-1,26
 380 12 380 12 348.5 1 c 128,-1,27
 317 -10 317 -10 275 -10 c 0,4,5
289 63 m 0,28,29
 374 63 374 63 408.5 109.5 c 128,-1,30
 443 156 443 156 443 250 c 2,31,-1
 443 266 l 2,32,33
 443 366 443 366 410 419.5 c 128,-1,34
 377 473 377 473 288 473 c 0,35,36
 217 473 217 473 181.5 416.5 c 128,-1,37
 146 360 146 360 146 265 c 0,38,39
 146 169 146 169 181.5 116 c 128,-1,40
 217 63 217 63 289 63 c 0,28,29
EndSplineSet
Validated: 5
EndChar

StartChar: E
Encoding: 69 69 45
Width: 447
Flags: W
LayerCount: 2
Fore
SplineSet
74 572 m 1,0,-1
 402 572 l 1,1,-1
 402 501 l 1,2,-1
 161 501 l 1,3,-1
 161 332 l 1,4,-1
 387 332 l 1,5,-1
 387 262 l 1,6,-1
 161 262 l 1,7,-1
 161 71 l 1,8,-1
 402 71 l 1,9,-1
 402 0 l 1,10,-1
 74 0 l 1,11,-1
 74 572 l 1,0,-1
EndSplineSet
Validated: 1
EndChar

StartChar: F
Encoding: 70 70 46
Width: 420
Flags: W
LayerCount: 2
Fore
SplineSet
74 572 m 1,0,-1
 401 572 l 1,1,-1
 401 501 l 1,2,-1
 161 501 l 1,3,-1
 161 309 l 1,4,-1
 386 309 l 1,5,-1
 386 238 l 1,6,-1
 161 238 l 1,7,-1
 161 0 l 1,8,-1
 74 0 l 1,9,-1
 74 572 l 1,0,-1
EndSplineSet
Validated: 1
EndChar

StartChar: G
Encoding: 71 71 47
Width: 615
Flags: W
LayerCount: 2
Fore
SplineSet
275 546 m 0,0,1
 328 546 328 546 370.5 526 c 128,-1,2
 413 506 413 506 443 465 c 1,3,-1
 448 465 l 1,4,-1
 460 536 l 1,5,-1
 530 536 l 1,6,-1
 530 -9 l 2,7,8
 530 -85 530 -85 504 -136.5 c 128,-1,9
 478 -188 478 -188 425 -214 c 128,-1,10
 372 -240 372 -240 290 -240 c 0,11,12
 232 -240 232 -240 183.5 -231.5 c 128,-1,13
 135 -223 135 -223 97 -206 c 1,14,-1
 97 -125 l 1,15,16
 135 -145 135 -145 186 -156 c 128,-1,17
 237 -167 237 -167 295 -167 c 0,18,19
 364 -167 364 -167 403.5 -126.5 c 128,-1,20
 443 -86 443 -86 443 -16 c 2,21,-1
 443 5 l 2,22,23
 443 17 443 17 444 39.5 c 128,-1,24
 445 62 445 62 446 71 c 1,25,-1
 442 71 l 1,26,27
 414 30 414 30 372.5 10 c 128,-1,28
 331 -10 331 -10 276 -10 c 0,29,30
 172 -10 172 -10 113.5 63 c 128,-1,31
 55 136 55 136 55 267 c 0,32,33
 55 395 55 395 113.5 470.5 c 128,-1,34
 172 546 172 546 275 546 c 0,0,1
287 472 m 0,35,36
 242 472 242 472 210.5 448 c 128,-1,37
 179 424 179 424 162.5 378 c 128,-1,38
 146 332 146 332 146 266 c 0,39,40
 146 167 146 167 182.5 114.5 c 128,-1,41
 219 62 219 62 289 62 c 0,42,43
 330 62 330 62 359 72.5 c 128,-1,44
 388 83 388 83 407 105.5 c 128,-1,45
 426 128 426 128 435 163 c 128,-1,46
 444 198 444 198 444 246 c 2,47,-1
 444 267 l 2,48,49
 444 340 444 340 427.5 385 c 128,-1,50
 411 430 411 430 376 451 c 128,-1,51
 341 472 341 472 287 472 c 0,35,36
298 737 m 0,52,53
 318 737 318 737 333.5 723.5 c 128,-1,54
 349 710 349 710 349 681 c 0,55,56
 349 653 349 653 333.5 639 c 128,-1,57
 318 625 318 625 298 625 c 0,58,59
 276 625 276 625 261 639 c 128,-1,60
 246 653 246 653 246 681 c 0,61,62
 246 710 246 710 261 723.5 c 128,-1,63
 276 737 276 737 298 737 c 0,52,53
EndSplineSet
Validated: 1
EndChar

StartChar: H
Encoding: 72 72 48
Width: 617
Flags: W
LayerCount: 2
Fore
SplineSet
85 611 m 2,0,1
 85 665 85 665 102.5 699 c 128,-1,2
 120 733 120 733 153.5 749 c 128,-1,3
 187 765 187 765 233 765 c 0,4,5
 262 765 262 765 286.5 760.5 c 128,-1,6
 311 756 311 756 327 749 c 1,7,-1
 312 680 l 1,8,9
 296 685 296 685 278.5 688.5 c 128,-1,10
 261 692 261 692 241 692 c 0,11,12
 207 692 207 692 190 671.5 c 128,-1,13
 173 651 173 651 173 613 c 2,14,-1
 173 535 l 2,15,16
 173 513 173 513 171.5 488 c 128,-1,17
 170 463 170 463 169 452 c 1,18,-1
 174 452 l 1,19,20
 193 483 193 483 218.5 502 c 128,-1,21
 244 521 244 521 277 530 c 128,-1,22
 310 539 310 539 350 539 c 0,23,24
 410 539 410 539 451.5 518 c 128,-1,25
 493 497 493 497 515 453.5 c 128,-1,26
 537 410 537 410 537 343 c 2,27,-1
 537 0 l 1,28,-1
 449 0 l 1,29,-1
 449 326 l 2,30,31
 449 398 449 398 420 431.5 c 128,-1,32
 391 465 391 465 331 465 c 0,33,34
 273 465 273 465 238.5 443.5 c 128,-1,35
 204 422 204 422 188.5 379 c 128,-1,36
 173 336 173 336 173 271 c 2,37,-1
 173 0 l 1,38,-1
 85 0 l 1,39,-1
 85 611 l 2,0,1
EndSplineSet
Validated: 1
EndChar

StartChar: I
Encoding: 73 73 49
Width: 258
Flags: W
LayerCount: 2
Fore
SplineSet
173 0 m 5,0,-1
 85 0 l 5,1,-1
 85 536 l 5,2,-1
 173 536 l 5,3,-1
 173 0 l 5,0,-1
EndSplineSet
Refer: 96 96 N 1 0 0 1 -41 0 2
Validated: 1
EndChar

StartChar: J
Encoding: 74 74 50
Width: 355
Flags: W
LayerCount: 2
Fore
SplineSet
119 -9 m 0,0,1
 91 -9 91 -9 69 -5.5 c 128,-1,2
 47 -2 47 -2 27 7 c 1,3,-1
 27 80 l 1,4,5
 48 70 48 70 68.5 65.5 c 128,-1,6
 89 61 89 61 109 61 c 0,7,8
 155 61 155 61 175.5 86.5 c 128,-1,9
 196 112 196 112 196 164 c 2,10,-1
 196 572 l 1,11,-1
 283 572 l 1,12,-1
 283 172 l 2,13,14
 283 108 283 108 263.5 68.5 c 128,-1,15
 244 29 244 29 207.5 10 c 128,-1,16
 171 -9 171 -9 119 -9 c 0,0,1
EndSplineSet
Validated: 1
EndChar

StartChar: K
Encoding: 75 75 51
Width: 506
Flags: W
LayerCount: 2
Fore
SplineSet
74 572 m 1,0,-1
 162 572 l 1,1,-1
 162 294 l 1,2,3
 171 305 171 305 180.5 316 c 128,-1,4
 190 327 190 327 200 338.5 c 128,-1,5
 210 350 210 350 219 361 c 2,6,-1
 404 572 l 1,7,-1
 504 572 l 1,8,-1
 289 324 l 1,9,-1
 506 0 l 1,10,-1
 405 0 l 1,11,-1
 226 268 l 1,12,-1
 162 217 l 1,13,-1
 162 0 l 1,14,-1
 74 0 l 1,15,-1
 74 572 l 1,0,-1
EndSplineSet
Validated: 1
EndChar

StartChar: L
Encoding: 76 76 52
Width: 439
Flags: W
LayerCount: 2
Fore
SplineSet
161 572 m 1,0,-1
 161 73 l 1,1,-1
 416 73 l 1,2,-1
 416 0 l 1,3,-1
 74 0 l 1,4,-1
 74 572 l 1,5,-1
 161 572 l 1,0,-1
EndSplineSet
Validated: 1
EndChar

StartChar: M
Encoding: 77 77 53
Width: 935
Flags: W
LayerCount: 2
Fore
SplineSet
499 725 m 4,0,1
 519 725 519 725 534.5 711.5 c 132,-1,2
 550 698 550 698 550 669 c 4,3,4
 550 641 550 641 534.5 627 c 132,-1,5
 519 613 519 613 499 613 c 4,6,7
 477 613 477 613 462 627 c 132,-1,8
 447 641 447 641 447 669 c 4,9,10
 447 698 447 698 462 711.5 c 132,-1,11
 477 725 477 725 499 725 c 4,0,1
673 546 m 0,12,13
 764 546 764 546 809 499.5 c 128,-1,14
 854 453 854 453 854 349 c 2,15,-1
 854 0 l 1,16,-1
 767 0 l 1,17,-1
 767 345 l 2,18,19
 767 408 767 408 740.5 440 c 128,-1,20
 714 472 714 472 658 472 c 0,21,22
 580 472 580 472 546.5 427 c 128,-1,23
 513 382 513 382 513 296 c 2,24,-1
 513 0 l 1,25,-1
 426 0 l 1,26,-1
 426 345 l 2,27,28
 426 387 426 387 414 415.5 c 128,-1,29
 402 444 402 444 378 458 c 128,-1,30
 354 472 354 472 316 472 c 0,31,32
 262 472 262 472 231 449.5 c 128,-1,33
 200 427 200 427 186.5 384 c 128,-1,34
 173 341 173 341 173 278 c 2,35,-1
 173 0 l 1,36,-1
 85 0 l 1,37,-1
 85 536 l 1,38,-1
 156 536 l 1,39,-1
 169 463 l 1,40,-1
 174 463 l 1,41,42
 191 491 191 491 215.5 509.5 c 128,-1,43
 240 528 240 528 270 537 c 128,-1,44
 300 546 300 546 332 546 c 0,45,46
 394 546 394 546 435.5 524 c 128,-1,47
 477 502 477 502 496 456 c 1,48,-1
 501 456 l 1,49,50
 528 502 528 502 574.5 524 c 128,-1,51
 621 546 621 546 673 546 c 0,12,13
EndSplineSet
Validated: 1
EndChar

StartChar: N
Encoding: 78 78 54
Width: 618
Flags: W
LayerCount: 2
Fore
SplineSet
285 737 m 4,0,1
 305 737 305 737 320.5 723.5 c 132,-1,2
 336 710 336 710 336 681 c 4,3,4
 336 653 336 653 320.5 639 c 132,-1,5
 305 625 305 625 285 625 c 4,6,7
 263 625 263 625 248 639 c 132,-1,8
 233 653 233 653 233 681 c 4,9,10
 233 710 233 710 248 723.5 c 132,-1,11
 263 737 263 737 285 737 c 4,0,1
343 546 m 0,12,13
 439 546 439 546 488 499.5 c 128,-1,14
 537 453 537 453 537 349 c 2,15,-1
 537 0 l 1,16,-1
 450 0 l 1,17,-1
 450 343 l 2,18,19
 450 408 450 408 421 440 c 128,-1,20
 392 472 392 472 330 472 c 0,21,22
 241 472 241 472 207 422 c 128,-1,23
 173 372 173 372 173 278 c 2,24,-1
 173 0 l 1,25,-1
 85 0 l 1,26,-1
 85 536 l 1,27,-1
 156 536 l 1,28,-1
 169 463 l 1,29,-1
 174 463 l 1,30,31
 192 491 192 491 218.5 509.5 c 128,-1,32
 245 528 245 528 277 537 c 128,-1,33
 309 546 309 546 343 546 c 0,12,13
EndSplineSet
Validated: 1
EndChar

StartChar: O
Encoding: 79 79 55
Width: 605
Flags: W
LayerCount: 2
Fore
SplineSet
303 722 m 4,0,1
 323 722 323 722 338.5 708.5 c 132,-1,2
 354 695 354 695 354 666 c 4,3,4
 354 638 354 638 338.5 624 c 132,-1,5
 323 610 323 610 303 610 c 4,6,7
 281 610 281 610 266 624 c 132,-1,8
 251 638 251 638 251 666 c 4,9,10
 251 695 251 695 266 708.5 c 132,-1,11
 281 722 281 722 303 722 c 4,0,1
551 269 m 0,12,13
 551 202 551 202 533.5 150.5 c 128,-1,14
 516 99 516 99 483.5 63 c 128,-1,15
 451 27 451 27 404.5 8.5 c 128,-1,16
 358 -10 358 -10 301 -10 c 0,17,18
 248 -10 248 -10 203 8.5 c 128,-1,19
 158 27 158 27 125 63 c 128,-1,20
 92 99 92 99 73.5 150.5 c 128,-1,21
 55 202 55 202 55 269 c 0,22,23
 55 358 55 358 85 419.5 c 128,-1,24
 115 481 115 481 171 513.5 c 128,-1,25
 227 546 227 546 304 546 c 0,26,27
 377 546 377 546 432.5 513.5 c 128,-1,28
 488 481 488 481 519.5 419.5 c 128,-1,29
 551 358 551 358 551 269 c 0,12,13
146 269 m 0,30,31
 146 206 146 206 162.5 159.5 c 128,-1,32
 179 113 179 113 214 88 c 128,-1,33
 249 63 249 63 303 63 c 256,34,35
 357 63 357 63 392 88 c 128,-1,36
 427 113 427 113 443.5 159.5 c 128,-1,37
 460 206 460 206 460 269 c 0,38,39
 460 333 460 333 443 378 c 128,-1,40
 426 423 426 423 391.5 447.5 c 128,-1,41
 357 472 357 472 302 472 c 0,42,43
 220 472 220 472 183 418 c 128,-1,44
 146 364 146 364 146 269 c 0,30,31
EndSplineSet
Validated: 1
EndChar

StartChar: P
Encoding: 80 80 56
Width: 615
Flags: W
LayerCount: 2
Fore
SplineSet
338 722 m 4,0,1
 358 722 358 722 373.5 708.5 c 132,-1,2
 389 695 389 695 389 666 c 4,3,4
 389 638 389 638 373.5 624 c 132,-1,5
 358 610 358 610 338 610 c 4,6,7
 316 610 316 610 301 624 c 132,-1,8
 286 638 286 638 286 666 c 4,9,10
 286 695 286 695 301 708.5 c 132,-1,11
 316 722 316 722 338 722 c 4,0,1
340 546 m 0,12,13
 439 546 439 546 499.5 477 c 128,-1,14
 560 408 560 408 560 269 c 0,15,16
 560 178 560 178 532.5 115.5 c 128,-1,17
 505 53 505 53 455.5 21.5 c 128,-1,18
 406 -10 406 -10 339 -10 c 0,19,20
 298 -10 298 -10 266 1 c 128,-1,21
 234 12 234 12 211.5 29.5 c 128,-1,22
 189 47 189 47 173 68 c 1,23,-1
 167 68 l 1,24,25
 169 51 169 51 171 25 c 128,-1,26
 173 -1 173 -1 173 -20 c 2,27,-1
 173 -240 l 1,28,-1
 85 -240 l 1,29,-1
 85 536 l 1,30,-1
 157 536 l 1,31,-1
 169 463 l 1,32,-1
 173 463 l 1,33,34
 189 486 189 486 211.5 505 c 128,-1,35
 234 524 234 524 265.5 535 c 128,-1,36
 297 546 297 546 340 546 c 0,12,13
324 472 m 0,37,38
 270 472 270 472 237 451.5 c 128,-1,39
 204 431 204 431 189 390 c 128,-1,40
 174 349 174 349 173 286 c 2,41,-1
 173 269 l 2,42,43
 173 203 173 203 187 157 c 128,-1,44
 201 111 201 111 234.5 87 c 128,-1,45
 268 63 268 63 326 63 c 0,46,47
 375 63 375 63 406.5 90 c 128,-1,48
 438 117 438 117 453.5 163.5 c 128,-1,49
 469 210 469 210 469 270 c 0,50,51
 469 362 469 362 433.5 417 c 128,-1,52
 398 472 398 472 324 472 c 0,37,38
EndSplineSet
Validated: 1
EndChar

StartChar: Q
Encoding: 81 81 57
Width: 534
Flags: W
LayerCount: 2
Fore
SplineSet
198 766 m 5,0,1
 209 744 209 744 225.5 716.5 c 132,-1,2
 242 689 242 689 260.5 663 c 132,-1,3
 279 637 279 637 294 618 c 5,4,-1
 294 606 l 5,5,-1
 235 606 l 5,6,7
 218 620 218 620 197 639.5 c 132,-1,8
 176 659 176 659 155.5 680.5 c 132,-1,9
 135 702 135 702 118.5 722 c 132,-1,10
 102 742 102 742 93 756 c 5,11,-1
 93 766 l 5,12,-1
 198 766 l 5,0,1
172 363 m 2,13,14
 172 347 172 347 170.5 321 c 128,-1,15
 169 295 169 295 168 276 c 1,16,-1
 172 276 l 1,17,18
 178 284 178 284 190 299 c 128,-1,19
 202 314 202 314 214.5 329.5 c 128,-1,20
 227 345 227 345 236 355 c 2,21,-1
 407 536 l 1,22,-1
 510 536 l 1,23,-1
 293 307 l 1,24,-1
 525 0 l 1,25,-1
 419 0 l 1,26,-1
 233 250 l 1,27,-1
 172 197 l 1,28,-1
 172 0 l 1,29,-1
 85 0 l 1,30,-1
 85 536 l 1,31,-1
 172 536 l 1,32,-1
 172 363 l 2,13,14
EndSplineSet
Validated: 1
EndChar

StartChar: R
Encoding: 82 82 58
Width: 413
Flags: W
LayerCount: 2
Fore
SplineSet
212 720 m 4,0,1
 232 720 232 720 247.5 706.5 c 132,-1,2
 263 693 263 693 263 664 c 4,3,4
 263 636 263 636 247.5 622 c 132,-1,5
 232 608 232 608 212 608 c 4,6,7
 190 608 190 608 175 622 c 132,-1,8
 160 636 160 636 160 664 c 4,9,10
 160 693 160 693 175 706.5 c 132,-1,11
 190 720 190 720 212 720 c 4,0,1
335 546 m 0,12,13
 350 546 350 546 367.5 544.5 c 128,-1,14
 385 543 385 543 398 540 c 1,15,-1
 387 459 l 1,16,17
 374 462 374 462 358.5 464 c 128,-1,18
 343 466 343 466 329 466 c 0,19,20
 298 466 298 466 270 453 c 128,-1,21
 242 440 242 440 220 416.5 c 128,-1,22
 198 393 198 393 185.5 360 c 128,-1,23
 173 327 173 327 173 286 c 2,24,-1
 173 0 l 1,25,-1
 85 0 l 1,26,-1
 85 536 l 1,27,-1
 157 536 l 1,28,-1
 167 438 l 1,29,-1
 171 438 l 1,30,31
 188 468 188 468 212 492.5 c 128,-1,32
 236 517 236 517 267 531.5 c 128,-1,33
 298 546 298 546 335 546 c 0,12,13
EndSplineSet
Validated: 1
EndChar

StartChar: S
Encoding: 83 83 59
Width: 479
Flags: W
LayerCount: 2
Fore
SplineSet
254 742 m 4,0,1
 274 742 274 742 289.5 728.5 c 132,-1,2
 305 715 305 715 305 686 c 4,3,4
 305 658 305 658 289.5 644 c 132,-1,5
 274 630 274 630 254 630 c 4,6,7
 232 630 232 630 217 644 c 132,-1,8
 202 658 202 658 202 686 c 4,9,10
 202 715 202 715 217 728.5 c 132,-1,11
 232 742 232 742 254 742 c 4,0,1
434 148 m 0,12,13
 434 96 434 96 408 61 c 128,-1,14
 382 26 382 26 334 8 c 128,-1,15
 286 -10 286 -10 220 -10 c 0,16,17
 164 -10 164 -10 123.5 -1 c 128,-1,18
 83 8 83 8 52 24 c 1,19,-1
 52 104 l 1,20,21
 84 88 84 88 129.5 74.5 c 128,-1,22
 175 61 175 61 222 61 c 0,23,24
 289 61 289 61 319 82.5 c 128,-1,25
 349 104 349 104 349 140 c 0,26,27
 349 160 349 160 338 176 c 128,-1,28
 327 192 327 192 298.5 208 c 128,-1,29
 270 224 270 224 217 244 c 0,30,31
 165 264 165 264 128 284 c 128,-1,32
 91 304 91 304 71 332 c 128,-1,33
 51 360 51 360 51 404 c 0,34,35
 51 472 51 472 106.5 509 c 128,-1,36
 162 546 162 546 252 546 c 0,37,38
 301 546 301 546 343.5 536.5 c 128,-1,39
 386 527 386 527 423 510 c 1,40,-1
 393 440 l 1,41,42
 359 454 359 454 322 464 c 128,-1,43
 285 474 285 474 246 474 c 0,44,45
 192 474 192 474 163.5 456.5 c 128,-1,46
 135 439 135 439 135 409 c 0,47,48
 135 387 135 387 148 371.5 c 128,-1,49
 161 356 161 356 191.5 341.5 c 128,-1,50
 222 327 222 327 273 307 c 0,51,52
 324 288 324 288 360 268 c 128,-1,53
 396 248 396 248 415 219.5 c 128,-1,54
 434 191 434 191 434 148 c 0,12,13
EndSplineSet
Validated: 1
EndChar

StartChar: T
Encoding: 84 84 60
Width: 448
Flags: W
LayerCount: 2
Fore
SplineSet
438 659 m 1,0,-1
 438 564 l 5,1,-1
 268 564 l 1,2,-1
 268 0 l 1,3,-1
 181 0 l 1,4,-1
 181 564 l 1,5,-1
 11 564 l 1,6,-1
 11 659 l 1,7,-1
 438 659 l 1,0,-1
EndSplineSet
EndChar

StartChar: U
Encoding: 85 85 61
Width: 618
Flags: W
LayerCount: 2
Fore
SplineSet
303 725 m 4,0,1
 323 725 323 725 338.5 711.5 c 132,-1,2
 354 698 354 698 354 669 c 4,3,4
 354 641 354 641 338.5 627 c 132,-1,5
 323 613 323 613 303 613 c 4,6,7
 281 613 281 613 266 627 c 132,-1,8
 251 641 251 641 251 669 c 4,9,10
 251 698 251 698 266 711.5 c 132,-1,11
 281 725 281 725 303 725 c 4,0,1
533 536 m 1,12,-1
 533 0 l 1,13,-1
 461 0 l 1,14,-1
 448 71 l 1,15,-1
 444 71 l 1,16,17
 427 43 427 43 400 25 c 128,-1,18
 373 7 373 7 341 -1.5 c 128,-1,19
 309 -10 309 -10 274 -10 c 0,20,21
 210 -10 210 -10 166.5 10.5 c 128,-1,22
 123 31 123 31 101 74 c 128,-1,23
 79 117 79 117 79 185 c 2,24,-1
 79 536 l 1,25,-1
 168 536 l 1,26,-1
 168 191 l 2,27,28
 168 127 168 127 197 95 c 128,-1,29
 226 63 226 63 287 63 c 0,30,31
 347 63 347 63 381.5 85.5 c 128,-1,32
 416 108 416 108 430.5 151.5 c 128,-1,33
 445 195 445 195 445 257 c 2,34,-1
 445 536 l 1,35,-1
 533 536 l 1,12,-1
EndSplineSet
Validated: 1
EndChar

StartChar: V
Encoding: 86 86 62
Width: 508
Flags: W
LayerCount: 2
Fore
SplineSet
235 725 m 4,0,1
 255 725 255 725 270.5 711.5 c 132,-1,2
 286 698 286 698 286 669 c 4,3,4
 286 641 286 641 270.5 627 c 132,-1,5
 255 613 255 613 235 613 c 4,6,7
 213 613 213 613 198 627 c 132,-1,8
 183 641 183 641 183 669 c 4,9,10
 183 698 183 698 198 711.5 c 132,-1,11
 213 725 213 725 235 725 c 4,0,1
203 0 m 1,12,-1
 0 536 l 1,13,-1
 94 536 l 1,14,-1
 208 220 l 2,15,16
 216 198 216 198 225 171 c 128,-1,17
 234 144 234 144 241 119.5 c 128,-1,18
 248 95 248 95 251 78 c 1,19,-1
 255 78 l 1,20,21
 259 95 259 95 266.5 120 c 128,-1,22
 274 145 274 145 283.5 172 c 128,-1,23
 293 199 293 199 300 220 c 2,24,-1
 414 536 l 1,25,-1
 508 536 l 1,26,-1
 304 0 l 1,27,-1
 203 0 l 1,12,-1
EndSplineSet
Validated: 1
EndChar

StartChar: W
Encoding: 87 87 63
Width: 782
Flags: W
AnchorPoint: "Anchor-1" 391 0 basechar 0
AnchorPoint: "Anchor-0" 389 536 basechar 0
LayerCount: 2
Fore
SplineSet
247 -10 m 0,0,1
 185 -10 185 -10 142.5 24 c 128,-1,2
 100 58 100 58 78 119 c 128,-1,3
 56 180 56 180 56 260 c 0,4,5
 56 338 56 338 70 402 c 128,-1,6
 84 466 84 466 115 536 c 1,7,-1
 205 536 l 1,8,9
 174 466 174 466 159 402.5 c 128,-1,10
 144 339 144 339 144 259 c 0,11,12
 144 162 144 162 174 112.5 c 128,-1,13
 204 63 204 63 253 63 c 0,14,15
 303 63 303 63 326 100 c 128,-1,16
 349 137 349 137 349 193 c 2,17,-1
 349 344 l 1,18,-1
 433 344 l 1,19,-1
 433 193 l 2,20,21
 433 131 433 131 458 97 c 128,-1,22
 483 63 483 63 528 63 c 0,23,24
 578 63 578 63 608 112.5 c 128,-1,25
 638 162 638 162 638 259 c 0,26,27
 638 339 638 339 623.5 402.5 c 128,-1,28
 609 466 609 466 577 536 c 1,29,-1
 667 536 l 1,30,31
 698 466 698 466 712 402 c 128,-1,32
 726 338 726 338 726 260 c 0,33,34
 726 180 726 180 704 119 c 128,-1,35
 682 58 682 58 639.5 24 c 128,-1,36
 597 -10 597 -10 535 -10 c 0,37,38
 427 -10 427 -10 393 80 c 1,39,-1
 388 80 l 1,40,41
 356 -10 356 -10 247 -10 c 0,0,1
EndSplineSet
Validated: 1
EndChar

StartChar: X
Encoding: 88 88 64
Width: 529
Flags: W
LayerCount: 2
Fore
SplineSet
265 722 m 0,0,1
 285 722 285 722 300.5 708.5 c 128,-1,2
 316 695 316 695 316 666 c 0,3,4
 316 638 316 638 300.5 624 c 128,-1,5
 285 610 285 610 265 610 c 4,6,7
 243 610 243 610 228 624 c 128,-1,8
 213 638 213 638 213 666 c 0,9,10
 213 695 213 695 228 708.5 c 128,-1,11
 243 722 243 722 265 722 c 0,0,1
212 274 m 1,12,-1
 27 536 l 1,13,-1
 127 536 l 1,14,-1
 265 334 l 1,15,-1
 402 536 l 1,16,-1
 501 536 l 1,17,-1
 316 274 l 1,18,-1
 511 0 l 1,19,-1
 411 0 l 1,20,-1
 265 214 l 1,21,-1
 117 0 l 1,22,-1
 18 0 l 1,23,-1
 212 274 l 1,12,-1
EndSplineSet
Validated: 1
EndChar

StartChar: Y
Encoding: 89 89 65
Width: 510
Flags: W
LayerCount: 2
Fore
SplineSet
259 682 m 4,0,1
 279 682 279 682 294.5 668.5 c 132,-1,2
 310 655 310 655 310 626 c 4,3,4
 310 598 310 598 294.5 584 c 132,-1,5
 279 570 279 570 259 570 c 4,6,7
 237 570 237 570 222 584 c 132,-1,8
 207 598 207 598 207 626 c 4,9,10
 207 655 207 655 222 668.5 c 132,-1,11
 237 682 237 682 259 682 c 4,0,1
1 536 m 1,12,-1
 95 536 l 1,13,-1
 211 231 l 2,14,15
 221 204 221 204 229.5 179 c 128,-1,16
 238 154 238 154 245 130.5 c 128,-1,17
 252 107 252 107 256 85 c 1,18,-1
 260 85 l 1,19,20
 266 110 266 110 279 150.5 c 128,-1,21
 292 191 292 191 306 232 c 2,22,-1
 415 536 l 1,23,-1
 510 536 l 1,24,-1
 279 -74 l 2,25,26
 260 -124 260 -124 234.5 -161.5 c 128,-1,27
 209 -199 209 -199 172.5 -219.5 c 128,-1,28
 136 -240 136 -240 84 -240 c 0,29,30
 60 -240 60 -240 42 -237.5 c 128,-1,31
 24 -235 24 -235 11 -232 c 1,32,-1
 11 -162 l 1,33,34
 22 -164 22 -164 37.5 -166 c 128,-1,35
 53 -168 53 -168 70 -168 c 0,36,37
 101 -168 101 -168 123.5 -156.5 c 128,-1,38
 146 -145 146 -145 162 -123.5 c 128,-1,39
 178 -102 178 -102 189 -73 c 2,40,-1
 217 -2 l 1,41,-1
 1 536 l 1,12,-1
EndSplineSet
Validated: 1
EndChar

StartChar: Z
Encoding: 90 90 66
Width: 479
Flags: W
LayerCount: 2
Fore
SplineSet
29 0 m 1,0,-1
 29 56 l 1,1,-1
 332 499 l 1,2,-1
 40 499 l 1,3,-1
 40 572 l 1,4,-1
 443 572 l 1,5,-1
 443 515 l 1,6,-1
 140 73 l 1,7,-1
 451 73 l 1,8,-1
 451 0 l 1,9,-1
 29 0 l 1,0,-1
245 773 m 0,10,11
 265 773 265 773 280.5 759.5 c 128,-1,12
 296 746 296 746 296 717 c 0,13,14
 296 689 296 689 280.5 675 c 128,-1,15
 265 661 265 661 245 661 c 0,16,17
 223 661 223 661 208 675 c 128,-1,18
 193 689 193 689 193 717 c 0,19,20
 193 746 193 746 208 759.5 c 128,-1,21
 223 773 223 773 245 773 c 0,10,11
EndSplineSet
Validated: 1
EndChar

StartChar: a
Encoding: 97 97 67
Width: 561
Flags: W
LayerCount: 2
Fore
SplineSet
288 545 m 0,0,1
 386 545 386 545 433 502 c 128,-1,2
 480 459 480 459 480 365 c 2,3,-1
 480 0 l 1,4,-1
 416 0 l 1,5,-1
 399 76 l 1,6,-1
 395 76 l 1,7,8
 372 47 372 47 347.5 27.5 c 128,-1,9
 323 8 323 8 291.5 -1 c 128,-1,10
 260 -10 260 -10 215 -10 c 0,11,12
 167 -10 167 -10 128.5 7 c 128,-1,13
 90 24 90 24 68 59.5 c 128,-1,14
 46 95 46 95 46 149 c 0,15,16
 46 229 46 229 109 272.5 c 128,-1,17
 172 316 172 316 303 320 c 2,18,-1
 394 323 l 1,19,-1
 394 355 l 2,20,21
 394 422 394 422 365 448 c 128,-1,22
 336 474 336 474 283 474 c 0,23,24
 241 474 241 474 203 461.5 c 128,-1,25
 165 449 165 449 132 433 c 1,26,-1
 105 499 l 1,27,28
 140 518 140 518 188 531.5 c 128,-1,29
 236 545 236 545 288 545 c 0,0,1
314 259 m 2,30,31
 214 255 214 255 175.5 227 c 128,-1,32
 137 199 137 199 137 148 c 0,33,34
 137 103 137 103 164.5 82 c 128,-1,35
 192 61 192 61 235 61 c 0,36,37
 303 61 303 61 348 98.5 c 128,-1,38
 393 136 393 136 393 214 c 2,39,-1
 393 262 l 1,40,-1
 314 259 l 2,30,31
EndSplineSet
EndChar

StartChar: b
Encoding: 98 98 68
Width: 867
Flags: W
AnchorPoint: "Cursive-2" 51 0 entry 0
AnchorPoint: "Anchor-0" 867 -15 basechar 0
LayerCount: 2
Fore
SplineSet
566 -11 m 0,0,1
 530 -11 530 -11 504 -0.5 c 128,-1,2
 478 10 478 10 462 28.5 c 128,-1,3
 446 47 446 47 438.5 70 c 128,-1,4
 431 93 431 93 431 117 c 0,5,6
 431 149 431 149 439.5 175 c 128,-1,7
 448 201 448 201 462 234 c 0,8,9
 474 262 474 262 482.5 289 c 128,-1,10
 491 316 491 316 491 349 c 0,11,12
 491 393 491 393 472 423.5 c 128,-1,13
 453 454 453 454 417.5 470 c 128,-1,14
 382 486 382 486 332 486 c 0,15,16
 265 486 265 486 215 457 c 128,-1,17
 165 428 165 428 137 374.5 c 128,-1,18
 109 321 109 321 109 247 c 0,19,20
 109 215 109 215 114 185 c 128,-1,21
 119 155 119 155 132 129 c 0,22,23
 148 96 148 96 176 76.5 c 128,-1,24
 204 57 204 57 249 57 c 0,25,26
 277 57 277 57 293 64 c 128,-1,27
 309 71 309 71 316 83.5 c 128,-1,28
 323 96 323 96 323 113 c 0,29,30
 323 135 323 135 308 151 c 128,-1,31
 293 167 293 167 261 167 c 0,32,33
 230 167 230 167 202.5 150.5 c 128,-1,34
 175 134 175 134 147 99 c 1,35,-1
 114 152 l 1,36,37
 141 185 141 185 179.5 209.5 c 128,-1,38
 218 234 218 234 267 234 c 0,39,40
 311 234 311 234 339 217 c 128,-1,41
 367 200 367 200 381 173 c 128,-1,42
 395 146 395 146 395 116 c 0,43,44
 395 58 395 58 359.5 23.5 c 128,-1,45
 324 -11 324 -11 250 -11 c 0,46,47
 200 -11 200 -11 160 9 c 128,-1,48
 120 29 120 29 92.5 64.5 c 128,-1,49
 65 100 65 100 50.5 146.5 c 128,-1,50
 36 193 36 193 36 246 c 0,51,52
 36 315 36 315 57 372 c 128,-1,53
 78 429 78 429 117.5 470 c 128,-1,54
 157 511 157 511 212.5 533 c 128,-1,55
 268 555 268 555 336 555 c 0,56,57
 412 555 412 555 462.5 529 c 128,-1,58
 513 503 513 503 539 458.5 c 128,-1,59
 565 414 565 414 565 359 c 0,60,61
 565 318 565 318 554.5 284.5 c 128,-1,62
 544 251 544 251 528 213 c 0,63,64
 516 185 516 185 509 164 c 128,-1,65
 502 143 502 143 502 122 c 0,66,67
 502 90 502 90 520 74 c 128,-1,68
 538 58 538 58 569 58 c 0,69,70
 607 58 607 58 640 79.5 c 128,-1,71
 673 101 673 101 699 142 c 128,-1,72
 725 183 725 183 739.5 242.5 c 128,-1,73
 754 302 754 302 754 379 c 0,74,75
 754 466 754 466 731.5 537 c 128,-1,76
 709 608 709 608 664 659 c 128,-1,77
 619 710 619 710 552 738 c 128,-1,78
 485 766 485 766 396 766 c 0,79,80
 311 766 311 766 233 747 c 128,-1,81
 155 728 155 728 81 686 c 1,82,-1
 47 751 l 1,83,84
 98 778 98 778 153 797 c 128,-1,85
 208 816 208 816 269 826 c 128,-1,86
 330 836 330 836 398 836 c 0,87,88
 504 836 504 836 584.5 803.5 c 128,-1,89
 665 771 665 771 719.5 711 c 128,-1,90
 774 651 774 651 801.5 567 c 128,-1,91
 829 483 829 483 829 381 c 0,92,93
 829 296 829 296 811.5 224 c 128,-1,94
 794 152 794 152 760 99.5 c 128,-1,95
 726 47 726 47 677.5 18 c 128,-1,96
 629 -11 629 -11 566 -11 c 0,0,1
EndSplineSet
Validated: 5
EndChar

StartChar: c
Encoding: 99 99 69
Width: 490
Flags: W
AnchorPoint: "Anchor-1" 245 536 basechar 0
AnchorPoint: "Anchor-0" 245 0 basechar 0
LayerCount: 2
Fore
SplineSet
301 -10 m 0,0,1
 183 -10 183 -10 118 57 c 128,-1,2
 53 124 53 124 53 245 c 0,3,4
 53 325 53 325 82 380.5 c 128,-1,5
 111 436 111 436 165 465 c 1,6,-1
 0 465 l 5,7,-1
 0 537 l 5,8,-1
 458 537 l 1,9,-1
 458 465 l 1,10,-1
 345 465 l 2,11,12
 251 465 251 465 197.5 411.5 c 128,-1,13
 144 358 144 358 144 252 c 0,14,15
 144 165 144 165 187 114.5 c 128,-1,16
 230 64 230 64 310 64 c 0,17,18
 347 64 347 64 381 73.5 c 128,-1,19
 415 83 415 83 447 99 c 1,20,-1
 447 21 l 1,21,22
 418 5 418 5 383 -2.5 c 128,-1,23
 348 -10 348 -10 301 -10 c 0,0,1
EndSplineSet
Validated: 1
EndChar

StartChar: d
Encoding: 100 100 70
Width: 864
Flags: W
AnchorPoint: "Cursive-2" 45 0 entry 0
AnchorPoint: "Anchor-0" 864 -15 basechar 0
LayerCount: 2
Fore
SplineSet
580 -11 m 0,0,1
 518 -11 518 -11 480.5 14.5 c 128,-1,2
 443 40 443 40 418 77 c 1,3,4
 398 50 398 50 375.5 30 c 128,-1,5
 353 10 353 10 323 -0.5 c 128,-1,6
 293 -11 293 -11 248 -11 c 0,7,8
 189 -11 189 -11 142.5 14 c 128,-1,9
 96 39 96 39 69.5 87 c 128,-1,10
 43 135 43 135 43 204 c 0,11,12
 43 246 43 246 56.5 284.5 c 128,-1,13
 70 323 70 323 101.5 354.5 c 128,-1,14
 133 386 133 386 185 406 c 1,15,-1
 187 397 l 1,16,17
 153 391 153 391 116 390 c 128,-1,18
 79 389 79 389 50 389 c 2,19,-1
 30 389 l 1,20,-1
 30 455 l 1,21,-1
 346 455 l 1,22,23
 343 502 343 502 317.5 524 c 128,-1,24
 292 546 292 546 254 546 c 0,25,26
 215 546 215 546 196 531 c 128,-1,27
 177 516 177 516 177 489 c 0,28,29
 177 487 177 487 177 484 c 128,-1,30
 177 481 177 481 178 478 c 1,31,-1
 105 474 l 1,32,33
 104 479 104 479 104 485.5 c 128,-1,34
 104 492 104 492 104 496 c 0,35,36
 104 553 104 553 142.5 582.5 c 128,-1,37
 181 612 181 612 248 612 c 0,38,39
 302 612 302 612 340 591.5 c 128,-1,40
 378 571 378 571 397.5 530.5 c 128,-1,41
 417 490 417 490 417 430 c 2,42,-1
 417 389 l 1,43,-1
 382 389 l 2,44,45
 347 389 347 389 310 387 c 128,-1,46
 273 385 273 385 238 375 c 128,-1,47
 203 365 203 365 173 340 c 0,48,49
 147 318 147 318 131.5 285 c 128,-1,50
 116 252 116 252 116 204 c 0,51,52
 116 134 116 134 152.5 97 c 128,-1,53
 189 60 189 60 250 60 c 0,54,55
 288 60 288 60 313.5 70.5 c 128,-1,56
 339 81 339 81 354.5 100.5 c 128,-1,57
 370 120 370 120 377 147.5 c 128,-1,58
 384 175 384 175 384 208 c 2,59,-1
 384 214 l 1,60,-1
 451 214 l 1,61,-1
 451 208 l 2,62,63
 451 176 451 176 457.5 149 c 128,-1,64
 464 122 464 122 478.5 102 c 128,-1,65
 493 82 493 82 517.5 71 c 128,-1,66
 542 60 542 60 578 60 c 0,67,68
 626 60 626 60 664.5 86.5 c 128,-1,69
 703 113 703 113 725.5 175.5 c 128,-1,70
 748 238 748 238 748 345 c 0,71,72
 748 483 748 483 709 576.5 c 128,-1,73
 670 670 670 670 590.5 718 c 128,-1,74
 511 766 511 766 389 766 c 0,75,76
 325 766 325 766 272 756 c 128,-1,77
 219 746 219 746 173 728 c 128,-1,78
 127 710 127 710 83 686 c 1,79,-1
 50 751 l 1,80,81
 121 789 121 789 203.5 812.5 c 128,-1,82
 286 836 286 836 392 836 c 0,83,84
 525 836 525 836 621.5 784 c 128,-1,85
 718 732 718 732 770.5 624 c 128,-1,86
 823 516 823 516 823 348 c 0,87,88
 823 216 823 216 791.5 137 c 128,-1,89
 760 58 760 58 705 23.5 c 128,-1,90
 650 -11 650 -11 580 -11 c 0,0,1
EndSplineSet
Validated: 5
EndChar

StartChar: e
Encoding: 101 101 71
Width: 564
Flags: W
LayerCount: 2
Fore
SplineSet
292 546 m 0,0,1
 361 546 361 546 410.5 516 c 128,-1,2
 460 486 460 486 486.5 431.5 c 128,-1,3
 513 377 513 377 513 304 c 2,4,-1
 513 251 l 1,5,-1
 146 251 l 1,6,7
 148 160 148 160 192.5 112.5 c 128,-1,8
 237 65 237 65 317 65 c 0,9,10
 368 65 368 65 407.5 74.5 c 128,-1,11
 447 84 447 84 489 102 c 1,12,-1
 489 25 l 1,13,14
 448 7 448 7 408 -1.5 c 128,-1,15
 368 -10 368 -10 313 -10 c 0,16,17
 237 -10 237 -10 178.5 21 c 128,-1,18
 120 52 120 52 87.5 113.5 c 128,-1,19
 55 175 55 175 55 264 c 0,20,21
 55 352 55 352 84.5 415 c 128,-1,22
 114 478 114 478 167.5 512 c 128,-1,23
 221 546 221 546 292 546 c 0,0,1
291 474 m 0,24,25
 228 474 228 474 191.5 433.5 c 128,-1,26
 155 393 155 393 148 321 c 1,27,-1
 421 321 l 1,28,29
 421 367 421 367 407 401 c 128,-1,30
 393 435 393 435 364.5 454.5 c 128,-1,31
 336 474 336 474 291 474 c 0,24,25
EndSplineSet
Validated: 1
EndChar

StartChar: f
Encoding: 102 102 72
Width: 844
Flags: W
AnchorPoint: "Cursive-2" 55 0 entry 0
AnchorPoint: "Anchor-0" 846 -15 basechar 0
LayerCount: 2
Fore
SplineSet
549 -11 m 0,0,1
 534 -11 534 -11 524.5 -10 c 128,-1,2
 515 -9 515 -9 501 -8 c 1,3,-1
 505 60 l 1,4,5
 514 59 514 59 522.5 58.5 c 128,-1,6
 531 58 531 58 540 58 c 0,7,8
 596 58 596 58 633.5 75.5 c 128,-1,9
 671 93 671 93 692.5 126 c 128,-1,10
 714 159 714 159 723 205 c 128,-1,11
 732 251 732 251 732 308 c 0,12,13
 732 377 732 377 715.5 430 c 128,-1,14
 699 483 699 483 665.5 512.5 c 128,-1,15
 632 542 632 542 581 542 c 0,16,17
 550 542 550 542 526.5 532 c 128,-1,18
 503 522 503 522 487 503 c 256,19,20
 471 484 471 484 463.5 454.5 c 128,-1,21
 456 425 456 425 456 381 c 2,22,-1
 456 347 l 1,23,-1
 389 347 l 1,24,-1
 389 381 l 2,25,26
 389 423 389 423 382 450 c 128,-1,27
 375 477 375 477 359 499 c 0,28,29
 344 519 344 519 320 530.5 c 128,-1,30
 296 542 296 542 263 542 c 0,31,32
 215 542 215 542 181 514 c 128,-1,33
 147 486 147 486 129.5 434 c 128,-1,34
 112 382 112 382 112 308 c 0,35,36
 112 252 112 252 121 206 c 128,-1,37
 130 160 130 160 151.5 127 c 128,-1,38
 173 94 173 94 210 76 c 128,-1,39
 247 58 247 58 304 58 c 0,40,41
 311 58 311 58 320.5 58.5 c 128,-1,42
 330 59 330 59 338 60 c 1,43,-1
 342 -8 l 1,44,45
 329 -9 329 -9 318.5 -10 c 128,-1,46
 308 -11 308 -11 294 -11 c 0,47,48
 208 -11 208 -11 151 26.5 c 128,-1,49
 94 64 94 64 66 135.5 c 128,-1,50
 38 207 38 207 38 308 c 256,51,52
 38 409 38 409 66.5 476.5 c 128,-1,53
 95 544 95 544 145.5 578 c 128,-1,54
 196 612 196 612 261 612 c 0,55,56
 323 612 323 612 361 584.5 c 128,-1,57
 399 557 399 557 422 517 c 1,58,59
 448 563 448 563 487 587.5 c 128,-1,60
 526 612 526 612 586 612 c 0,61,62
 650 612 650 612 699.5 578 c 128,-1,63
 749 544 749 544 777.5 476 c 128,-1,64
 806 408 806 408 806 307 c 0,65,66
 806 205 806 205 777 134 c 128,-1,67
 748 63 748 63 691 26 c 128,-1,68
 634 -11 634 -11 549 -11 c 0,0,1
EndSplineSet
Validated: 1
EndChar

StartChar: g
Encoding: 103 103 73
Width: 615
Flags: W
LayerCount: 2
Fore
SplineSet
275 546 m 0,0,1
 328 546 328 546 370.5 526 c 128,-1,2
 413 506 413 506 443 465 c 1,3,-1
 448 465 l 1,4,-1
 460 536 l 1,5,-1
 530 536 l 1,6,-1
 530 -9 l 2,7,8
 530 -85 530 -85 504 -136.5 c 128,-1,9
 478 -188 478 -188 425 -214 c 128,-1,10
 372 -240 372 -240 290 -240 c 0,11,12
 232 -240 232 -240 183.5 -231.5 c 128,-1,13
 135 -223 135 -223 97 -206 c 1,14,-1
 97 -125 l 1,15,16
 135 -145 135 -145 186 -156 c 128,-1,17
 237 -167 237 -167 295 -167 c 0,18,19
 364 -167 364 -167 403.5 -126.5 c 128,-1,20
 443 -86 443 -86 443 -16 c 2,21,-1
 443 5 l 2,22,23
 443 17 443 17 444 39.5 c 128,-1,24
 445 62 445 62 446 71 c 1,25,-1
 442 71 l 1,26,27
 414 30 414 30 372.5 10 c 128,-1,28
 331 -10 331 -10 276 -10 c 0,29,30
 172 -10 172 -10 113.5 63 c 128,-1,31
 55 136 55 136 55 267 c 0,32,33
 55 395 55 395 113.5 470.5 c 128,-1,34
 172 546 172 546 275 546 c 0,0,1
287 472 m 0,35,36
 242 472 242 472 210.5 448 c 128,-1,37
 179 424 179 424 162.5 378 c 128,-1,38
 146 332 146 332 146 266 c 0,39,40
 146 167 146 167 182.5 114.5 c 128,-1,41
 219 62 219 62 289 62 c 0,42,43
 330 62 330 62 359 72.5 c 128,-1,44
 388 83 388 83 407 105.5 c 128,-1,45
 426 128 426 128 435 163 c 128,-1,46
 444 198 444 198 444 246 c 2,47,-1
 444 267 l 2,48,49
 444 340 444 340 427.5 385 c 128,-1,50
 411 430 411 430 376 451 c 128,-1,51
 341 472 341 472 287 472 c 0,35,36
EndSplineSet
Validated: 1
EndChar

StartChar: h
Encoding: 104 104 74
Width: 618
Flags: W
LayerCount: 2
Fore
SplineSet
173 537 m 2,0,1
 173 518 173 518 171.5 498 c 128,-1,2
 170 478 170 478 168 462 c 1,3,-1
 174 462 l 1,4,5
 191 490 191 490 217 508 c 128,-1,6
 243 526 243 526 275 535.5 c 128,-1,7
 307 545 307 545 341 545 c 0,8,9
 406 545 406 545 449.5 524.5 c 128,-1,10
 493 504 493 504 515 461 c 128,-1,11
 537 418 537 418 537 349 c 2,12,-1
 537 0 l 1,13,-1
 450 0 l 1,14,-1
 450 343 l 2,15,16
 450 408 450 408 421 440 c 128,-1,17
 392 472 392 472 330 472 c 0,18,19
 270 472 270 472 236 449.5 c 128,-1,20
 202 427 202 427 187.5 383.5 c 128,-1,21
 173 340 173 340 173 277 c 2,22,-1
 173 0 l 1,23,-1
 85 0 l 1,24,-1
 85 760 l 1,25,-1
 173 760 l 1,26,-1
 173 537 l 2,0,1
EndSplineSet
Validated: 1
EndChar

StartChar: i
Encoding: 105 105 75
Width: 258
Flags: W
LayerCount: 2
Fore
SplineSet
173 536 m 1,0,-1
 173 0 l 1,1,-1
 85 0 l 1,2,-1
 85 536 l 1,3,-1
 173 536 l 1,0,-1
130 737 m 0,4,5
 150 737 150 737 165.5 723.5 c 128,-1,6
 181 710 181 710 181 681 c 0,7,8
 181 653 181 653 165.5 639 c 128,-1,9
 150 625 150 625 130 625 c 0,10,11
 108 625 108 625 93 639 c 128,-1,12
 78 653 78 653 78 681 c 0,13,14
 78 710 78 710 93 723.5 c 128,-1,15
 108 737 108 737 130 737 c 0,4,5
EndSplineSet
Validated: 513
Substitution2: "Single Substitution lookup 77 subtable" dotlessi
Substitution2: "Single Substitution lookup 76 subtable" dotlessi
EndChar

StartChar: j
Encoding: 106 106 76
Width: 258
Flags: W
LayerCount: 2
Fore
SplineSet
22 -240 m 0,0,1
 -3 -240 -3 -240 -22 -236.5 c 128,-1,2
 -41 -233 -41 -233 -55 -228 c 1,3,-1
 -55 -157 l 1,4,5
 -40 -161 -40 -161 -24 -164 c 128,-1,6
 -8 -167 -8 -167 11 -167 c 0,7,8
 43 -167 43 -167 64 -149.5 c 128,-1,9
 85 -132 85 -132 85 -83 c 2,10,-1
 85 536 l 1,11,-1
 173 536 l 1,12,-1
 173 -80 l 2,13,14
 173 -130 173 -130 157 -166 c 128,-1,15
 141 -202 141 -202 108 -221 c 128,-1,16
 75 -240 75 -240 22 -240 c 0,0,1
78 681 m 0,17,18
 78 710 78 710 93 723.5 c 128,-1,19
 108 737 108 737 130 737 c 0,20,21
 150 737 150 737 165.5 723.5 c 128,-1,22
 181 710 181 710 181 681 c 0,23,24
 181 653 181 653 165.5 639 c 128,-1,25
 150 625 150 625 130 625 c 0,26,27
 108 625 108 625 93 639 c 128,-1,28
 78 653 78 653 78 681 c 0,17,18
EndSplineSet
Validated: 513
Substitution2: "Single Substitution lookup 77 subtable" uni0237
Substitution2: "Single Substitution lookup 76 subtable" uni0237
EndChar

StartChar: k
Encoding: 107 107 77
Width: 534
Flags: W
LayerCount: 2
Fore
SplineSet
172 363 m 2,0,1
 172 347 172 347 170.5 321 c 128,-1,2
 169 295 169 295 168 276 c 1,3,-1
 172 276 l 1,4,5
 178 284 178 284 190 299 c 128,-1,6
 202 314 202 314 214.5 329.5 c 128,-1,7
 227 345 227 345 236 355 c 2,8,-1
 407 536 l 1,9,-1
 510 536 l 1,10,-1
 293 307 l 1,11,-1
 525 0 l 1,12,-1
 419 0 l 1,13,-1
 233 250 l 1,14,-1
 172 197 l 1,15,-1
 172 0 l 1,16,-1
 85 0 l 1,17,-1
 85 760 l 1,18,-1
 172 760 l 1,19,-1
 172 363 l 2,0,1
EndSplineSet
Validated: 1
EndChar

StartChar: l
Encoding: 108 108 78
Width: 852
Flags: W
AnchorPoint: "Cursive-2" 51 0 entry 0
LayerCount: 2
Fore
SplineSet
446 -204 m 0,0,1
 304 -204 304 -204 213.5 -154 c 128,-1,2
 123 -104 123 -104 79.5 -15.5 c 128,-1,3
 36 73 36 73 36 189 c 0,4,5
 36 287 36 287 66.5 365 c 128,-1,6
 97 443 97 443 155 498 c 128,-1,7
 213 553 213 553 295 582.5 c 128,-1,8
 377 612 377 612 480 612 c 0,9,10
 570 612 570 612 633 594 c 128,-1,11
 696 576 696 576 735 544.5 c 128,-1,12
 774 513 774 513 791.5 470.5 c 128,-1,13
 809 428 809 428 809 379 c 0,14,15
 809 326 809 326 785.5 284 c 128,-1,16
 762 242 762 242 714.5 218.5 c 128,-1,17
 667 195 667 195 596 195 c 0,18,19
 531 195 531 195 493 213 c 128,-1,20
 455 231 455 231 439 262.5 c 128,-1,21
 423 294 423 294 423 333 c 0,22,23
 423 349 423 349 428 365.5 c 128,-1,24
 433 382 433 382 440 396 c 1,25,-1
 483 374 l 1,26,-1
 441 367 l 1,27,-1
 276 367 l 1,28,-1
 276 434 l 1,29,-1
 649 434 l 1,30,-1
 649 367 l 1,31,-1
 468 367 l 1,32,-1
 529 398 l 1,33,34
 513 383 513 383 504.5 367.5 c 128,-1,35
 496 352 496 352 496 334 c 256,36,37
 496 316 496 316 504.5 300 c 128,-1,38
 513 284 513 284 534.5 274 c 128,-1,39
 556 264 556 264 595 264 c 0,40,41
 663 264 663 264 698.5 294 c 128,-1,42
 734 324 734 324 734 378 c 0,43,44
 734 426 734 426 711.5 463.5 c 128,-1,45
 689 501 689 501 634 522.5 c 128,-1,46
 579 544 579 544 483 544 c 0,47,48
 359 544 359 544 276 499.5 c 128,-1,49
 193 455 193 455 152 375 c 128,-1,50
 111 295 111 295 111 187 c 0,51,52
 111 83 111 83 151.5 11.5 c 128,-1,53
 192 -60 192 -60 267 -96 c 128,-1,54
 342 -132 342 -132 444 -132 c 0,55,56
 527 -132 527 -132 595.5 -105.5 c 128,-1,57
 664 -79 664 -79 704.5 -22.5 c 128,-1,58
 745 34 745 34 745 124 c 0,59,60
 745 129 745 129 745 141 c 128,-1,61
 745 153 745 153 743 162 c 1,62,-1
 815 166 l 1,63,64
 817 155 817 155 817.5 144.5 c 128,-1,65
 818 134 818 134 818 123 c 0,66,67
 818 38 818 38 788 -23.5 c 128,-1,68
 758 -85 758 -85 705.5 -125 c 128,-1,69
 653 -165 653 -165 586.5 -184.5 c 128,-1,70
 520 -204 520 -204 446 -204 c 0,0,1
EndSplineSet
Validated: 5
EndChar

StartChar: m
Encoding: 109 109 79
Width: 850
Flags: W
AnchorPoint: "Cursive-2" 52 0 entry 0
AnchorPoint: "Anchor-0" 850 -15 basechar 0
LayerCount: 2
Fore
SplineSet
400 -11 m 0,0,1
 281 -11 281 -11 200.5 32.5 c 128,-1,2
 120 76 120 76 79.5 152.5 c 128,-1,3
 39 229 39 229 39 329 c 0,4,5
 39 409 39 409 62.5 464 c 128,-1,6
 86 519 86 519 126.5 547.5 c 128,-1,7
 167 576 167 576 218 576 c 0,8,9
 252 576 252 576 270.5 563 c 128,-1,10
 289 550 289 550 296.5 532 c 128,-1,11
 304 514 304 514 304 498 c 0,12,13
 304 470 304 470 298.5 445 c 128,-1,14
 293 420 293 420 293 385 c 0,15,16
 293 346 293 346 318.5 320 c 128,-1,17
 344 294 344 294 406 294 c 0,18,19
 445 294 445 294 474.5 306.5 c 128,-1,20
 504 319 504 319 520.5 345.5 c 128,-1,21
 537 372 537 372 537 414 c 0,22,23
 537 460 537 460 516 486 c 128,-1,24
 495 512 495 512 459 512 c 0,25,26
 431 512 431 512 415.5 500 c 128,-1,27
 400 488 400 488 400 464 c 0,28,29
 400 442 400 442 415 429 c 128,-1,30
 430 416 430 416 456 416 c 0,31,32
 488 416 488 416 511 425 c 128,-1,33
 534 434 534 434 561 455 c 1,34,-1
 574 410 l 1,35,36
 550 388 550 388 521.5 371 c 128,-1,37
 493 354 493 354 445 354 c 0,38,39
 390 354 390 354 360 384.5 c 128,-1,40
 330 415 330 415 330 464 c 0,41,42
 330 493 330 493 343.5 518.5 c 128,-1,43
 357 544 357 544 386 560 c 128,-1,44
 415 576 415 576 461 576 c 0,45,46
 496 576 496 576 529 560.5 c 128,-1,47
 562 545 562 545 583.5 509.5 c 128,-1,48
 605 474 605 474 605 413 c 0,49,50
 605 357 605 357 580.5 315.5 c 128,-1,51
 556 274 556 274 512 251.5 c 128,-1,52
 468 229 468 229 407 229 c 0,53,54
 339 229 339 229 298.5 250.5 c 128,-1,55
 258 272 258 272 240.5 307 c 128,-1,56
 223 342 223 342 223 382 c 0,57,58
 223 411 223 411 227.5 433.5 c 128,-1,59
 232 456 232 456 232 475 c 0,60,61
 232 489 232 489 227 499.5 c 128,-1,62
 222 510 222 510 204 510 c 0,63,64
 178 510 178 510 156.5 489 c 128,-1,65
 135 468 135 468 123 429 c 128,-1,66
 111 390 111 390 111 335 c 0,67,68
 111 246 111 246 145 184.5 c 128,-1,69
 179 123 179 123 244.5 91.5 c 128,-1,70
 310 60 310 60 402 60 c 0,71,72
 498 60 498 60 562.5 88 c 128,-1,73
 627 116 627 116 666 165 c 128,-1,74
 705 214 705 214 722 277 c 128,-1,75
 739 340 739 340 739 409 c 0,76,77
 739 513 739 513 708.5 582.5 c 128,-1,78
 678 652 678 652 627 692 c 128,-1,79
 576 732 576 732 515 749 c 128,-1,80
 454 766 454 766 394 766 c 0,81,82
 326 766 326 766 273 756 c 128,-1,83
 220 746 220 746 174.5 727.5 c 128,-1,84
 129 709 129 709 83 683 c 1,85,-1
 52 749 l 1,86,87
 99 775 99 775 152 794.5 c 128,-1,88
 205 814 205 814 265.5 825 c 128,-1,89
 326 836 326 836 394 836 c 0,90,91
 478 836 478 836 553.5 812 c 128,-1,92
 629 788 629 788 687.5 736.5 c 128,-1,93
 746 685 746 685 780 603.5 c 128,-1,94
 814 522 814 522 814 407 c 0,95,96
 814 319 814 319 790.5 243 c 128,-1,97
 767 167 767 167 717.5 110 c 128,-1,98
 668 53 668 53 589.5 21 c 128,-1,99
 511 -11 511 -11 400 -11 c 0,0,1
EndSplineSet
Validated: 5
EndChar

StartChar: n
Encoding: 110 110 80
Width: 963
Flags: W
AnchorPoint: "Cursive-2" 72 0 entry 0
AnchorPoint: "Anchor-0" 963 -15 basechar 0
LayerCount: 2
Fore
SplineSet
376 -11 m 0,0,1
 291 -11 291 -11 218.5 19 c 128,-1,2
 146 49 146 49 96 117 c 128,-1,3
 46 185 46 185 28 300 c 1,4,-1
 98 312 l 1,5,6
 114 224 114 224 148.5 168.5 c 128,-1,7
 183 113 183 113 239.5 86.5 c 128,-1,8
 296 60 296 60 378 60 c 0,9,10
 447 60 447 60 494 80.5 c 128,-1,11
 541 101 541 101 565.5 139.5 c 128,-1,12
 590 178 590 178 590 231 c 0,13,14
 590 285 590 285 566.5 317.5 c 128,-1,15
 543 350 543 350 502 365 c 128,-1,16
 461 380 461 380 410 380 c 0,17,18
 376 380 376 380 350 377.5 c 128,-1,19
 324 375 324 375 298 368 c 1,20,-1
 303 420 l 1,21,22
 322 429 322 429 352 438.5 c 128,-1,23
 382 448 382 448 428 448 c 0,24,25
 502 448 502 448 554.5 423 c 128,-1,26
 607 398 607 398 635 349 c 128,-1,27
 663 300 663 300 663 229 c 0,28,29
 663 185 663 185 648.5 142 c 128,-1,30
 634 99 634 99 601.5 64.5 c 128,-1,31
 569 30 569 30 513.5 9.5 c 128,-1,32
 458 -11 458 -11 376 -11 c 0,0,1
681 -3 m 0,33,34
 668 -3 668 -3 657.5 -2.5 c 128,-1,35
 647 -2 647 -2 634 -1 c 1,36,-1
 638 68 l 1,37,38
 644 67 644 67 655.5 66.5 c 128,-1,39
 667 66 667 66 672 66 c 0,40,41
 737 66 737 66 776.5 96 c 128,-1,42
 816 126 816 126 834 176.5 c 128,-1,43
 852 227 852 227 852 288 c 0,44,45
 852 370 852 370 819 426.5 c 128,-1,46
 786 483 786 483 727.5 512 c 128,-1,47
 669 541 669 541 592 541 c 0,48,49
 534 541 534 541 489.5 523.5 c 128,-1,50
 445 506 445 506 412 476.5 c 128,-1,51
 379 447 379 447 355 410 c 1,52,-1
 363 392 l 1,53,54
 341 317 341 317 303.5 277.5 c 128,-1,55
 266 238 266 238 217.5 224 c 128,-1,56
 169 210 169 210 113 210 c 0,57,58
 103 210 103 210 87.5 212.5 c 128,-1,59
 72 215 72 215 60 221 c 1,60,-1
 61 286 l 1,61,62
 75 282 75 282 93.5 280 c 128,-1,63
 112 278 112 278 124 278 c 0,64,65
 161 278 161 278 195.5 289 c 128,-1,66
 230 300 230 300 259 335 c 128,-1,67
 288 370 288 370 307 443 c 1,68,-1
 317 467 l 1,69,70
 342 504 342 504 380.5 537 c 128,-1,71
 419 570 419 570 472.5 591 c 128,-1,72
 526 612 526 612 594 612 c 0,73,74
 702 612 702 612 776 571 c 128,-1,75
 850 530 850 530 888.5 457.5 c 128,-1,76
 927 385 927 385 927 289 c 256,77,78
 927 193 927 193 894 128 c 128,-1,79
 861 63 861 63 805.5 30 c 128,-1,80
 750 -3 750 -3 681 -3 c 0,33,34
210 592 m 0,81,82
 259 592 259 592 288.5 568.5 c 128,-1,83
 318 545 318 545 332.5 509 c 128,-1,84
 347 473 347 473 350 434 c 1,85,-1
 295 398 l 1,86,87
 291 432 291 432 282.5 461 c 128,-1,88
 274 490 274 490 257 508 c 128,-1,89
 240 526 240 526 211 526 c 0,90,91
 183 526 183 526 165.5 510 c 128,-1,92
 148 494 148 494 148 459 c 0,93,94
 148 443 148 443 151.5 429.5 c 128,-1,95
 155 416 155 416 159 403 c 1,96,-1
 89 389 l 1,97,98
 83 409 83 409 79.5 429.5 c 128,-1,99
 76 450 76 450 76 467 c 0,100,101
 76 508 76 508 92.5 535.5 c 128,-1,102
 109 563 109 563 139.5 577.5 c 128,-1,103
 170 592 170 592 210 592 c 0,81,82
EndSplineSet
Validated: 5
EndChar

StartChar: o
Encoding: 111 111 81
Width: 605
Flags: W
LayerCount: 2
Fore
SplineSet
551 269 m 0,0,1
 551 202 551 202 533.5 150.5 c 128,-1,2
 516 99 516 99 483.5 63 c 128,-1,3
 451 27 451 27 404.5 8.5 c 128,-1,4
 358 -10 358 -10 301 -10 c 0,5,6
 248 -10 248 -10 203 8.5 c 128,-1,7
 158 27 158 27 125 63 c 128,-1,8
 92 99 92 99 73.5 150.5 c 128,-1,9
 55 202 55 202 55 269 c 0,10,11
 55 358 55 358 85 419.5 c 128,-1,12
 115 481 115 481 171 513.5 c 128,-1,13
 227 546 227 546 304 546 c 0,14,15
 377 546 377 546 432.5 513.5 c 128,-1,16
 488 481 488 481 519.5 419.5 c 128,-1,17
 551 358 551 358 551 269 c 0,0,1
146 269 m 0,18,19
 146 206 146 206 162.5 159.5 c 128,-1,20
 179 113 179 113 214 88 c 128,-1,21
 249 63 249 63 303 63 c 256,22,23
 357 63 357 63 392 88 c 128,-1,24
 427 113 427 113 443.5 159.5 c 128,-1,25
 460 206 460 206 460 269 c 0,26,27
 460 333 460 333 443 378 c 128,-1,28
 426 423 426 423 391.5 447.5 c 128,-1,29
 357 472 357 472 302 472 c 0,30,31
 220 472 220 472 183 418 c 128,-1,32
 146 364 146 364 146 269 c 0,18,19
EndSplineSet
Validated: 1
EndChar

StartChar: p
Encoding: 112 112 82
Width: 790
Flags: W
AnchorPoint: "Cursive-2" 51 0 entry 0
AnchorPoint: "Anchor-0" 790 -15 basechar 0
LayerCount: 2
Fore
SplineSet
394 -11 m 0,0,1
 274 -11 274 -11 194.5 21 c 128,-1,2
 115 53 115 53 75.5 112 c 128,-1,3
 36 171 36 171 36 251 c 0,4,5
 36 317 36 317 64 362.5 c 128,-1,6
 92 408 92 408 149 431.5 c 128,-1,7
 206 455 206 455 292 455 c 2,8,-1
 315 455 l 1,9,-1
 308 452 l 1,10,11
 307 501 307 501 280.5 523.5 c 128,-1,12
 254 546 254 546 215 546 c 0,13,14
 178 546 178 546 158.5 531 c 128,-1,15
 139 516 139 516 139 487 c 0,16,17
 139 482 139 482 140.5 472.5 c 128,-1,18
 142 463 142 463 143 458 c 1,19,-1
 73 446 l 1,20,21
 69 458 69 458 67.5 470.5 c 128,-1,22
 66 483 66 483 66 496 c 0,23,24
 66 553 66 553 104.5 582.5 c 128,-1,25
 143 612 143 612 210 612 c 0,26,27
 264 612 264 612 302 591.5 c 128,-1,28
 340 571 340 571 359.5 530.5 c 128,-1,29
 379 490 379 490 379 430 c 2,30,-1
 379 389 l 1,31,-1
 314 389 l 2,32,33
 247 389 247 389 209 380 c 128,-1,34
 171 371 171 371 148 351 c 0,35,36
 129 335 129 335 119 309.5 c 128,-1,37
 109 284 109 284 109 249 c 0,38,39
 109 196 109 196 138 153 c 128,-1,40
 167 110 167 110 230 85 c 128,-1,41
 293 60 293 60 395 60 c 0,42,43
 496 60 496 60 559 85 c 128,-1,44
 622 110 622 110 651.5 152.5 c 128,-1,45
 681 195 681 195 681 249 c 0,46,47
 681 284 681 284 671 309.5 c 128,-1,48
 661 335 661 335 642 351 c 0,49,50
 619 371 619 371 581 380 c 128,-1,51
 543 389 543 389 475 389 c 2,52,-1
 411 389 l 1,53,-1
 411 430 l 2,54,55
 411 490 411 490 431 530.5 c 128,-1,56
 451 571 451 571 489 591.5 c 128,-1,57
 527 612 527 612 581 612 c 0,58,59
 647 612 647 612 685.5 582.5 c 128,-1,60
 724 553 724 553 724 496 c 0,61,62
 724 483 724 483 722.5 470.5 c 128,-1,63
 721 458 721 458 718 446 c 1,64,-1
 647 458 l 1,65,66
 649 463 649 463 650 472.5 c 128,-1,67
 651 482 651 482 651 487 c 0,68,69
 651 516 651 516 632 531 c 128,-1,70
 613 546 613 546 575 546 c 0,71,72
 536 546 536 546 510 523.5 c 128,-1,73
 484 501 484 501 482 452 c 1,74,-1
 478 455 l 1,75,-1
 498 455 l 2,76,77
 586 455 586 455 642.5 431.5 c 128,-1,78
 699 408 699 408 726.5 362.5 c 128,-1,79
 754 317 754 317 754 251 c 0,80,81
 754 170 754 170 714.5 111 c 128,-1,82
 675 52 675 52 595.5 20.5 c 128,-1,83
 516 -11 516 -11 394 -11 c 0,0,1
EndSplineSet
Validated: 5
EndChar

StartChar: q
Encoding: 113 113 83
Width: 615
Flags: W
LayerCount: 2
Fore
SplineSet
442 -11 m 2,0,1
 442 7 442 7 443 31 c 128,-1,2
 444 55 444 55 447 72 c 1,3,-1
 441 72 l 1,4,5
 418 38 418 38 377.5 14 c 128,-1,6
 337 -10 337 -10 273 -10 c 0,7,8
 176 -10 176 -10 115.5 59.5 c 128,-1,9
 55 129 55 129 55 267 c 0,10,11
 55 359 55 359 83 421 c 128,-1,12
 111 483 111 483 161 514.5 c 128,-1,13
 211 546 211 546 276 546 c 0,14,15
 339 546 339 546 379 522 c 128,-1,16
 419 498 419 498 443 463 c 1,17,-1
 447 463 l 1,18,-1
 460 536 l 1,19,-1
 530 536 l 1,20,-1
 530 -240 l 1,21,-1
 442 -240 l 1,22,-1
 442 -11 l 2,0,1
290 63 m 0,23,24
 345 63 345 63 378.5 83 c 128,-1,25
 412 103 412 103 427 144.5 c 128,-1,26
 442 186 442 186 443 248 c 2,27,-1
 443 266 l 2,28,29
 443 368 443 368 409 420.5 c 128,-1,30
 375 473 375 473 288 473 c 0,31,32
 216 473 216 473 181 416.5 c 128,-1,33
 146 360 146 360 146 265 c 256,34,35
 146 170 146 170 181.5 116.5 c 128,-1,36
 217 63 217 63 290 63 c 0,23,24
EndSplineSet
Validated: 1
EndChar

StartChar: r
Encoding: 114 114 84
Width: 702
Flags: W
AnchorPoint: "Cursive-2" 51 0 entry 0
AnchorPoint: "Anchor-0" 702 -15 basechar 0
LayerCount: 2
Fore
SplineSet
342 -11 m 0,0,1
 246 -11 246 -11 177.5 23 c 128,-1,2
 109 57 109 57 72.5 121.5 c 128,-1,3
 36 186 36 186 36 277 c 0,4,5
 36 339 36 339 54 386 c 128,-1,6
 72 433 72 433 106.5 469 c 128,-1,7
 141 505 141 505 190.5 533 c 128,-1,8
 240 561 240 561 302 586 c 1,9,10
 378 628 378 628 462.5 683 c 128,-1,11
 547 738 547 738 629 805 c 1,12,-1
 677 749 l 1,13,14
 626 705 626 705 570 667 c 128,-1,15
 514 629 514 629 460.5 599 c 128,-1,16
 407 569 407 569 362 550 c 1,17,-1
 320 521 l 1,18,19
 235 493 235 493 189 455 c 128,-1,20
 143 417 143 417 126 372.5 c 128,-1,21
 109 328 109 328 109 279 c 0,22,23
 109 215 109 215 133.5 165.5 c 128,-1,24
 158 116 158 116 210 88 c 128,-1,25
 262 60 262 60 343 60 c 0,26,27
 430 60 430 60 485 89 c 128,-1,28
 540 118 540 118 566.5 168 c 128,-1,29
 593 218 593 218 593 281 c 0,30,31
 593 352 593 352 563 402.5 c 128,-1,32
 533 453 533 453 478.5 479.5 c 128,-1,33
 424 506 424 506 349 506 c 0,34,35
 329 506 329 506 305.5 503.5 c 128,-1,36
 282 501 282 501 258.5 496.5 c 128,-1,37
 235 492 235 492 214 485 c 1,38,-1
 289 555 l 1,39,40
 306 562 306 562 326 564 c 128,-1,41
 346 566 346 566 373 566 c 0,42,43
 458 566 458 566 524 534 c 128,-1,44
 590 502 590 502 628 439 c 128,-1,45
 666 376 666 376 666 283 c 256,46,47
 666 190 666 190 626.5 124 c 128,-1,48
 587 58 587 58 514.5 23.5 c 128,-1,49
 442 -11 442 -11 342 -11 c 0,0,1
EndSplineSet
Validated: 5
EndChar

StartChar: s
Encoding: 115 115 85
Width: 824
Flags: W
AnchorPoint: "Cursive-2" 45 0 entry 0
AnchorPoint: "Anchor-0" 824 -15 basechar 0
LayerCount: 2
Fore
SplineSet
588 -11 m 0,0,1
 543 -11 543 -11 511.5 1 c 128,-1,2
 480 13 480 13 457.5 33 c 128,-1,3
 435 53 435 53 418 77 c 1,4,5
 398 50 398 50 375.5 30 c 128,-1,6
 353 10 353 10 323 -0.5 c 128,-1,7
 293 -11 293 -11 248 -11 c 0,8,9
 189 -11 189 -11 142.5 14 c 128,-1,10
 96 39 96 39 69.5 87 c 128,-1,11
 43 135 43 135 43 204 c 0,12,13
 43 246 43 246 56.5 284.5 c 128,-1,14
 70 323 70 323 101.5 354.5 c 128,-1,15
 133 386 133 386 185 406 c 1,16,-1
 187 397 l 1,17,18
 153 391 153 391 116 390 c 128,-1,19
 79 389 79 389 50 389 c 2,20,-1
 30 389 l 1,21,-1
 30 455 l 1,22,-1
 331 455 l 1,23,24
 329 502 329 502 303 524 c 128,-1,25
 277 546 277 546 238 546 c 0,26,27
 200 546 200 546 181 531 c 128,-1,28
 162 516 162 516 162 489 c 0,29,30
 162 487 162 487 162 484 c 128,-1,31
 162 481 162 481 163 478 c 1,32,-1
 90 474 l 1,33,34
 89 479 89 479 89 485.5 c 128,-1,35
 89 492 89 492 89 496 c 0,36,37
 89 553 89 553 127.5 582.5 c 128,-1,38
 166 612 166 612 233 612 c 0,39,40
 287 612 287 612 325 591.5 c 128,-1,41
 363 571 363 571 382.5 530.5 c 128,-1,42
 402 490 402 490 402 430 c 2,43,-1
 402 389 l 1,44,-1
 382 389 l 2,45,46
 347 389 347 389 310 387 c 128,-1,47
 273 385 273 385 238 375 c 128,-1,48
 203 365 203 365 173 340 c 0,49,50
 147 318 147 318 131.5 285 c 128,-1,51
 116 252 116 252 116 204 c 0,52,53
 116 134 116 134 152.5 97 c 128,-1,54
 189 60 189 60 250 60 c 0,55,56
 288 60 288 60 313.5 70.5 c 128,-1,57
 339 81 339 81 354.5 100.5 c 128,-1,58
 370 120 370 120 377 147.5 c 128,-1,59
 384 175 384 175 384 208 c 2,60,-1
 384 214 l 1,61,-1
 451 214 l 1,62,-1
 451 208 l 2,63,64
 451 176 451 176 457.5 149 c 128,-1,65
 464 122 464 122 479 102 c 128,-1,66
 494 82 494 82 520 71 c 128,-1,67
 546 60 546 60 585 60 c 0,68,69
 647 60 647 60 681 99 c 128,-1,70
 715 138 715 138 715 218 c 0,71,72
 715 264 715 264 702.5 296 c 128,-1,73
 690 328 690 328 661 349 c 0,74,75
 631 370 631 370 586 379.5 c 128,-1,76
 541 389 541 389 475 389 c 2,77,-1
 434 389 l 1,78,-1
 434 430 l 2,79,80
 434 490 434 490 454 530.5 c 128,-1,81
 474 571 474 571 511.5 591.5 c 128,-1,82
 549 612 549 612 603 612 c 0,83,84
 670 612 670 612 708.5 582.5 c 128,-1,85
 747 553 747 553 747 496 c 0,86,87
 747 483 747 483 745 470.5 c 128,-1,88
 743 458 743 458 740 446 c 1,89,-1
 670 458 l 1,90,91
 672 463 672 463 673 472.5 c 128,-1,92
 674 482 674 482 674 487 c 0,93,94
 674 516 674 516 655 531 c 128,-1,95
 636 546 636 546 598 546 c 0,96,97
 559 546 559 546 533 523.5 c 128,-1,98
 507 501 507 501 505 452 c 1,99,-1
 486 455 l 1,100,-1
 501 455 l 2,101,102
 556 455 556 455 607.5 444.5 c 128,-1,103
 659 434 659 434 699.5 407.5 c 128,-1,104
 740 381 740 381 764 335 c 128,-1,105
 788 289 788 289 788 217 c 0,106,107
 788 140 788 140 761.5 89.5 c 128,-1,108
 735 39 735 39 689.5 14 c 128,-1,109
 644 -11 644 -11 588 -11 c 0,0,1
EndSplineSet
Validated: 5
EndChar

StartChar: t
Encoding: 116 116 86
Width: 792
Flags: W
AnchorPoint: "Cursive-2" 51 0 entry 0
AnchorPoint: "Anchor-0" 792 -15 basechar 0
LayerCount: 2
Fore
SplineSet
351 -11 m 256,0,1
 244 -11 244 -11 174 20.5 c 128,-1,2
 104 52 104 52 70 108 c 128,-1,3
 36 164 36 164 36 238 c 0,4,5
 36 306 36 306 59 353.5 c 128,-1,6
 82 401 82 401 122 430 c 128,-1,7
 162 459 162 459 214 472.5 c 128,-1,8
 266 486 266 486 323 486 c 0,9,10
 355 486 355 486 383 484 c 128,-1,11
 411 482 411 482 430 479 c 1,12,-1
 423 411 l 1,13,14
 400 415 400 415 379.5 416.5 c 128,-1,15
 359 418 359 418 324 418 c 0,16,17
 265 418 265 418 216 400.5 c 128,-1,18
 167 383 167 383 138 343.5 c 128,-1,19
 109 304 109 304 109 238 c 0,20,21
 109 186 109 186 133.5 146 c 128,-1,22
 158 106 158 106 211.5 83 c 128,-1,23
 265 60 265 60 351 60 c 0,24,25
 446 60 446 60 510 91.5 c 128,-1,26
 574 123 574 123 611.5 175.5 c 128,-1,27
 649 228 649 228 665 291.5 c 128,-1,28
 681 355 681 355 681 418 c 0,29,30
 681 519 681 519 652 586 c 128,-1,31
 623 653 623 653 575.5 692.5 c 128,-1,32
 528 732 528 732 472 749 c 128,-1,33
 416 766 416 766 362 766 c 0,34,35
 280 766 280 766 210 744.5 c 128,-1,36
 140 723 140 723 78 686 c 1,37,-1
 45 751 l 1,38,39
 111 788 111 788 192 812 c 128,-1,40
 273 836 273 836 367 836 c 0,41,42
 442 836 442 836 511.5 812.5 c 128,-1,43
 581 789 581 789 636.5 739 c 128,-1,44
 692 689 692 689 724 609.5 c 128,-1,45
 756 530 756 530 756 418 c 0,46,47
 756 330 756 330 733 252.5 c 128,-1,48
 710 175 710 175 661 115.5 c 128,-1,49
 612 56 612 56 535 22.5 c 128,-1,50
 458 -11 458 -11 351 -11 c 256,0,1
EndSplineSet
Validated: 1
EndChar

StartChar: u
Encoding: 117 117 87
Width: 618
Flags: W
LayerCount: 2
Fore
SplineSet
533 536 m 1,0,-1
 533 0 l 1,1,-1
 461 0 l 1,2,-1
 448 71 l 1,3,-1
 444 71 l 1,4,5
 427 43 427 43 400 25 c 128,-1,6
 373 7 373 7 341 -1.5 c 128,-1,7
 309 -10 309 -10 274 -10 c 0,8,9
 210 -10 210 -10 166.5 10.5 c 128,-1,10
 123 31 123 31 101 74 c 128,-1,11
 79 117 79 117 79 185 c 2,12,-1
 79 536 l 1,13,-1
 168 536 l 1,14,-1
 168 191 l 2,15,16
 168 127 168 127 197 95 c 128,-1,17
 226 63 226 63 287 63 c 0,18,19
 347 63 347 63 381.5 85.5 c 128,-1,20
 416 108 416 108 430.5 151.5 c 128,-1,21
 445 195 445 195 445 257 c 2,22,-1
 445 536 l 1,23,-1
 533 536 l 1,0,-1
EndSplineSet
Validated: 1
EndChar

StartChar: v
Encoding: 118 118 88
Width: 508
Flags: W
LayerCount: 2
Fore
SplineSet
203 0 m 1,0,-1
 0 536 l 1,1,-1
 94 536 l 1,2,-1
 208 220 l 2,3,4
 216 198 216 198 225 171 c 128,-1,5
 234 144 234 144 241 119.5 c 128,-1,6
 248 95 248 95 251 78 c 1,7,-1
 255 78 l 1,8,9
 259 95 259 95 266.5 120 c 128,-1,10
 274 145 274 145 283.5 172 c 128,-1,11
 293 199 293 199 300 220 c 2,12,-1
 414 536 l 1,13,-1
 508 536 l 1,14,-1
 304 0 l 1,15,-1
 203 0 l 1,0,-1
EndSplineSet
Validated: 1
EndChar

StartChar: w
Encoding: 119 119 89
Width: 786
Flags: W
LayerCount: 2
Fore
SplineSet
431 303 m 2,0,1
 425 324 425 324 419 344.5 c 128,-1,2
 413 365 413 365 408.5 383.5 c 128,-1,3
 404 402 404 402 400 418 c 128,-1,4
 396 434 396 434 394 445 c 1,5,-1
 390 445 l 1,6,7
 388 434 388 434 384.5 418 c 128,-1,8
 381 402 381 402 376.5 383 c 128,-1,9
 372 364 372 364 366.5 343.5 c 128,-1,10
 361 323 361 323 354 302 c 2,11,-1
 258 1 l 1,12,-1
 158 1 l 1,13,-1
 11 537 l 1,14,-1
 102 537 l 1,15,-1
 176 251 l 2,16,17
 184 222 184 222 191 192.5 c 128,-1,18
 198 163 198 163 203.5 136.5 c 128,-1,19
 209 110 209 110 211 91 c 1,20,-1
 215 91 l 1,21,22
 218 103 218 103 222 121 c 128,-1,23
 226 139 226 139 230.5 159 c 128,-1,24
 235 179 235 179 240.5 199 c 128,-1,25
 246 219 246 219 251 235 c 2,26,-1
 346 537 l 1,27,-1
 442 537 l 1,28,-1
 534 235 l 2,29,30
 541 212 541 212 548.5 186 c 128,-1,31
 556 160 556 160 562 135.5 c 128,-1,32
 568 111 568 111 570 92 c 1,33,-1
 574 92 l 1,34,35
 576 109 576 109 581.5 134.5 c 128,-1,36
 587 160 587 160 594.5 190.5 c 128,-1,37
 602 221 602 221 610 251 c 2,38,-1
 685 537 l 1,39,-1
 775 537 l 1,40,-1
 626 1 l 1,41,-1
 523 1 l 1,42,-1
 431 303 l 2,0,1
EndSplineSet
Validated: 1
EndChar

StartChar: x
Encoding: 120 120 90
Width: 529
Flags: W
LayerCount: 2
Fore
SplineSet
212 274 m 1,0,-1
 27 536 l 1,1,-1
 127 536 l 1,2,-1
 265 334 l 1,3,-1
 402 536 l 1,4,-1
 501 536 l 1,5,-1
 316 274 l 1,6,-1
 511 0 l 1,7,-1
 411 0 l 1,8,-1
 265 214 l 1,9,-1
 117 0 l 1,10,-1
 18 0 l 1,11,-1
 212 274 l 1,0,-1
EndSplineSet
Validated: 1
EndChar

StartChar: y
Encoding: 121 121 91
Width: 812
Flags: W
AnchorPoint: "Cursive-2" 51 0 entry 0
AnchorPoint: "Anchor-0" 812 -15 basechar 0
LayerCount: 2
Fore
SplineSet
576 -11 m 0,0,1
 531 -11 531 -11 499 1 c 128,-1,2
 467 13 467 13 444.5 33 c 128,-1,3
 422 53 422 53 405 77 c 1,4,5
 385 50 385 50 363 30 c 128,-1,6
 341 10 341 10 311 -0.5 c 128,-1,7
 281 -11 281 -11 236 -11 c 0,8,9
 180 -11 180 -11 134.5 14.5 c 128,-1,10
 89 40 89 40 62.5 92.5 c 128,-1,11
 36 145 36 145 36 226 c 0,12,13
 36 296 36 296 67.5 355 c 128,-1,14
 99 414 99 414 161.5 450 c 128,-1,15
 224 486 224 486 317 486 c 0,16,17
 330 486 330 486 342.5 485.5 c 128,-1,18
 355 485 355 485 365 483 c 1,19,-1
 359 416 l 1,20,21
 352 417 352 417 343.5 417.5 c 128,-1,22
 335 418 335 418 321 418 c 0,23,24
 255 418 255 418 207.5 394.5 c 128,-1,25
 160 371 160 371 134.5 326.5 c 128,-1,26
 109 282 109 282 109 220 c 0,27,28
 109 144 109 144 143.5 102 c 128,-1,29
 178 60 178 60 243 60 c 0,30,31
 279 60 279 60 303.5 70.5 c 128,-1,32
 328 81 328 81 343 100.5 c 128,-1,33
 358 120 358 120 364.5 147.5 c 128,-1,34
 371 175 371 175 371 208 c 2,35,-1
 371 214 l 1,36,-1
 438 214 l 1,37,-1
 438 208 l 2,38,39
 438 176 438 176 444.5 149 c 128,-1,40
 451 122 451 122 466 102 c 128,-1,41
 481 82 481 82 507 71 c 128,-1,42
 533 60 533 60 572 60 c 0,43,44
 634 60 634 60 668 99 c 128,-1,45
 702 138 702 138 702 218 c 0,46,47
 702 264 702 264 689.5 296.5 c 128,-1,48
 677 329 677 329 648 349 c 0,49,50
 619 370 619 370 573.5 379.5 c 128,-1,51
 528 389 528 389 460 389 c 2,52,-1
 418 389 l 1,53,-1
 418 430 l 2,54,55
 418 490 418 490 438 530.5 c 128,-1,56
 458 571 458 571 495.5 591.5 c 128,-1,57
 533 612 533 612 587 612 c 0,58,59
 654 612 654 612 692.5 582.5 c 128,-1,60
 731 553 731 553 731 496 c 0,61,62
 731 483 731 483 729 470.5 c 128,-1,63
 727 458 727 458 724 446 c 1,64,-1
 654 458 l 1,65,66
 656 463 656 463 657 472.5 c 128,-1,67
 658 482 658 482 658 487 c 0,68,69
 658 516 658 516 639 531 c 128,-1,70
 620 546 620 546 582 546 c 0,71,72
 543 546 543 546 517 523.5 c 128,-1,73
 491 501 491 501 489 452 c 1,74,-1
 473 455 l 1,75,-1
 488 455 l 2,76,77
 543 455 543 455 594.5 444.5 c 128,-1,78
 646 434 646 434 686.5 407.5 c 128,-1,79
 727 381 727 381 751 335 c 128,-1,80
 775 289 775 289 775 217 c 0,81,82
 775 140 775 140 748.5 89.5 c 128,-1,83
 722 39 722 39 677 14 c 128,-1,84
 632 -11 632 -11 576 -11 c 0,0,1
EndSplineSet
Validated: 5
EndChar

StartChar: z
Encoding: 122 122 92
Width: 470
Flags: W
LayerCount: 2
Fore
SplineSet
431 0 m 1,0,-1
 39 0 l 1,1,-1
 39 58 l 1,2,-1
 327 468 l 1,3,-1
 56 468 l 1,4,-1
 56 536 l 1,5,-1
 424 536 l 1,6,-1
 424 470 l 1,7,-1
 140 68 l 1,8,-1
 431 68 l 1,9,-1
 431 0 l 1,0,-1
EndSplineSet
Validated: 1
EndChar

StartChar: at
Encoding: 64 64 93
Width: 899
Flags: W
LayerCount: 2
Fore
SplineSet
841 357 m 0,0,1
 841 311 841 311 830.5 267 c 128,-1,2
 820 223 820 223 798 187.5 c 128,-1,3
 776 152 776 152 744 130.5 c 128,-1,4
 712 109 712 109 668 109 c 0,5,6
 622 109 622 109 595.5 135.5 c 128,-1,7
 569 162 569 162 563 196 c 1,8,-1
 558 196 l 1,9,10
 540 159 540 159 505 134 c 128,-1,11
 470 109 470 109 417 109 c 0,12,13
 341 109 341 109 299.5 160 c 128,-1,14
 258 211 258 211 258 295 c 0,15,16
 258 361 258 361 284 411.5 c 128,-1,17
 310 462 310 462 357.5 491 c 128,-1,18
 405 520 405 520 470 520 c 0,19,20
 514 520 514 520 556.5 512.5 c 128,-1,21
 599 505 599 505 623 496 c 1,22,-1
 613 293 l 2,23,24
 612 275 612 275 612 267.5 c 128,-1,25
 612 260 612 260 612 257 c 0,26,27
 612 205 612 205 630.5 188 c 128,-1,28
 649 171 649 171 674 171 c 0,29,30
 705 171 705 171 726.5 196.5 c 128,-1,31
 748 222 748 222 759.5 264.5 c 128,-1,32
 771 307 771 307 771 358 c 0,33,34
 771 451 771 451 733.5 515.5 c 128,-1,35
 696 580 696 580 630.5 614 c 128,-1,36
 565 648 565 648 482 648 c 0,37,38
 397 648 397 648 331 621 c 128,-1,39
 265 594 265 594 220.5 545 c 128,-1,40
 176 496 176 496 153 429.5 c 128,-1,41
 130 363 130 363 130 283 c 0,42,43
 130 185 130 185 165 116.5 c 128,-1,44
 200 48 200 48 267.5 12.5 c 128,-1,45
 335 -23 335 -23 433 -23 c 0,46,47
 494 -23 494 -23 549.5 -9.5 c 128,-1,48
 605 4 605 4 648 20 c 1,49,-1
 648 -48 l 1,50,51
 605 -66 605 -66 551.5 -77.5 c 128,-1,52
 498 -89 498 -89 433 -89 c 0,53,54
 315 -89 315 -89 231 -45 c 128,-1,55
 147 -1 147 -1 102.5 81.5 c 128,-1,56
 58 164 58 164 58 280 c 0,57,58
 58 373 58 373 87 452.5 c 128,-1,59
 116 532 116 532 171 590.5 c 128,-1,60
 226 649 226 649 304.5 681.5 c 128,-1,61
 383 714 383 714 482 714 c 0,62,63
 560 714 560 714 625.5 689.5 c 128,-1,64
 691 665 691 665 739.5 618.5 c 128,-1,65
 788 572 788 572 814.5 506 c 128,-1,66
 841 440 841 440 841 357 c 0,0,1
336 293 m 0,67,68
 336 229 336 229 361.5 200 c 128,-1,69
 387 171 387 171 430 171 c 0,70,71
 486 171 486 171 510.5 213 c 128,-1,72
 535 255 535 255 539 322 c 2,73,-1
 545 447 l 1,74,75
 532 451 532 451 512 454 c 128,-1,76
 492 457 492 457 471 457 c 0,77,78
 422 457 422 457 392 433 c 128,-1,79
 362 409 362 409 349 371.5 c 128,-1,80
 336 334 336 334 336 293 c 0,67,68
EndSplineSet
Validated: 1
EndChar

StartChar: ampersand
Encoding: 38 38 94
Width: 732
Flags: W
LayerCount: 2
Fore
SplineSet
304 725 m 0,0,1
 358 725 358 725 396.5 706.5 c 128,-1,2
 435 688 435 688 456 654 c 128,-1,3
 477 620 477 620 477 571 c 0,4,5
 477 508 477 508 436.5 464 c 128,-1,6
 396 420 396 420 334 384 c 1,7,-1
 527 198 l 1,8,9
 553 229 553 229 569.5 269.5 c 128,-1,10
 586 310 586 310 597 357 c 1,11,-1
 686 357 l 1,12,13
 670 293 670 293 646 238 c 128,-1,14
 622 183 622 183 584 142 c 1,15,-1
 730 0 l 1,16,-1
 611 0 l 1,17,-1
 524 84 l 1,18,19
 493 56 493 56 457 35 c 128,-1,20
 421 14 421 14 377.5 2 c 128,-1,21
 334 -10 334 -10 278 -10 c 0,22,23
 209 -10 209 -10 158.5 12.5 c 128,-1,24
 108 35 108 35 80.5 79 c 128,-1,25
 53 123 53 123 53 186 c 0,26,27
 53 237 53 237 71.5 274 c 128,-1,28
 90 311 90 311 125 340 c 128,-1,29
 160 369 160 369 207 396 c 1,30,31
 186 420 186 420 166 446 c 128,-1,32
 146 472 146 472 133 502.5 c 128,-1,33
 120 533 120 533 120 569 c 0,34,35
 120 618 120 618 142 653 c 128,-1,36
 164 688 164 688 205.5 706.5 c 128,-1,37
 247 725 247 725 304 725 c 0,0,1
260 341 m 1,38,39
 224 320 224 320 198.5 298.5 c 128,-1,40
 173 277 173 277 159 251 c 128,-1,41
 145 225 145 225 145 189 c 0,42,43
 145 134 145 134 182 101 c 128,-1,44
 219 68 219 68 281 68 c 0,45,46
 345 68 345 68 391 89 c 128,-1,47
 437 110 437 110 468 139 c 1,48,-1
 260 341 l 1,38,39
301 653 m 0,49,50
 259 653 259 653 232.5 631 c 128,-1,51
 206 609 206 609 206 570 c 0,52,53
 206 534 206 534 225 503.5 c 128,-1,54
 244 473 244 473 280 436 c 1,55,56
 339 470 339 470 364.5 500.5 c 128,-1,57
 390 531 390 531 390 571 c 0,58,59
 390 607 390 607 366 630 c 128,-1,60
 342 653 342 653 301 653 c 0,49,50
EndSplineSet
Validated: 1
EndChar

StartChar: dollar
Encoding: 36 36 95
Width: 572
Flags: W
LayerCount: 2
Fore
SplineSet
253 49 m 1,0,1
 198 50 198 50 146 58.5 c 128,-1,2
 94 67 94 67 62 82 c 1,3,-1
 62 167 l 1,4,5
 96 151 96 151 149 139 c 128,-1,6
 202 127 202 127 253 126 c 1,7,-1
 253 328 l 1,8,9
 187 346 187 346 145 369.5 c 128,-1,10
 103 393 103 393 82.5 427 c 128,-1,11
 62 461 62 461 62 508 c 0,12,13
 62 557 62 557 85.5 592 c 128,-1,14
 109 627 109 627 152 647.5 c 128,-1,15
 195 668 195 668 253 671 c 1,16,-1
 253 759 l 1,17,-1
 317 759 l 1,18,-1
 317 672 l 1,19,20
 370 671 370 671 413.5 660.5 c 128,-1,21
 457 650 457 650 493 635 c 1,22,-1
 466 561 l 1,23,24
 434 574 434 574 395.5 583.5 c 128,-1,25
 357 593 357 593 317 596 c 1,26,-1
 317 395 l 1,27,28
 383 376 383 376 427 354.5 c 128,-1,29
 471 333 471 333 493.5 301.5 c 128,-1,30
 516 270 516 270 516 220 c 0,31,32
 516 150 516 150 464 106.5 c 128,-1,33
 412 63 412 63 317 53 c 1,34,-1
 317 -58 l 1,35,-1
 253 -58 l 1,36,-1
 253 49 l 1,0,1
317 131 m 1,37,38
 376 137 376 137 403 158.5 c 128,-1,39
 430 180 430 180 430 214 c 0,40,41
 430 239 430 239 420 255.5 c 128,-1,42
 410 272 410 272 385.5 284 c 128,-1,43
 361 296 361 296 317 307 c 1,44,-1
 317 131 l 1,37,38
253 594 m 1,45,46
 217 592 217 592 194 581.5 c 128,-1,47
 171 571 171 571 159.5 554 c 128,-1,48
 148 537 148 537 148 515 c 0,49,50
 148 489 148 489 157.5 470.5 c 128,-1,51
 167 452 167 452 190 439.5 c 128,-1,52
 213 427 213 427 253 417 c 1,53,-1
 253 594 l 1,45,46
EndSplineSet
Validated: 1
EndChar

StartChar: grave
Encoding: 96 96 96
Width: 281
Flags: W
LayerCount: 2
Fore
SplineSet
145 766 m 1,0,1
 156 744 156 744 172.5 716.5 c 128,-1,2
 189 689 189 689 207.5 663 c 128,-1,3
 226 637 226 637 241 618 c 1,4,-1
 241 606 l 1,5,-1
 182 606 l 1,6,7
 165 620 165 620 144 639.5 c 128,-1,8
 123 659 123 659 102.5 680.5 c 128,-1,9
 82 702 82 702 65.5 722 c 128,-1,10
 49 742 49 742 40 756 c 1,11,-1
 40 766 l 1,12,-1
 145 766 l 1,0,1
EndSplineSet
Validated: 1
EndChar

StartChar: currency
Encoding: 164 164 97
Width: 1000
LayerCount: 2
Back
SplineSet
22 -240 m 0,0,1
 -3 -240 -3 -240 -22 -236.5 c 128,-1,2
 -41 -233 -41 -233 -55 -228 c 1,3,-1
 -55 -157 l 1,4,5
 -40 -161 -40 -161 -24 -164 c 128,-1,6
 -8 -167 -8 -167 11 -167 c 0,7,8
 43 -167 43 -167 64 -149.5 c 128,-1,9
 85 -132 85 -132 85 -83 c 2,10,-1
 85 536 l 1,11,-1
 173 536 l 1,12,-1
 173 -80 l 2,13,14
 173 -130 173 -130 157 -166 c 128,-1,15
 141 -202 141 -202 108 -221 c 128,-1,16
 75 -240 75 -240 22 -240 c 0,0,1
78 681 m 0,17,18
 78 710 78 710 93 723.5 c 128,-1,19
 108 737 108 737 130 737 c 0,20,21
 150 737 150 737 165.5 723.5 c 128,-1,22
 181 710 181 710 181 681 c 0,23,24
 181 653 181 653 165.5 639 c 128,-1,25
 150 625 150 625 130 625 c 0,26,27
 108 625 108 625 93 639 c 128,-1,28
 78 653 78 653 78 681 c 0,17,18
EndSplineSet
Fore
Validated: 1
EndChar

StartChar: yen
Encoding: 165 165 98
Width: 1000
LayerCount: 2
Back
SplineSet
442 -11 m 2,0,1
 442 7 442 7 443 31 c 128,-1,2
 444 55 444 55 447 72 c 1,3,-1
 441 72 l 1,4,5
 418 38 418 38 377.5 14 c 128,-1,6
 337 -10 337 -10 273 -10 c 0,7,8
 176 -10 176 -10 115.5 59.5 c 128,-1,9
 55 129 55 129 55 267 c 0,10,11
 55 359 55 359 83 421 c 128,-1,12
 111 483 111 483 161 514.5 c 128,-1,13
 211 546 211 546 276 546 c 0,14,15
 339 546 339 546 379 522 c 128,-1,16
 419 498 419 498 443 463 c 1,17,-1
 447 463 l 1,18,-1
 460 536 l 1,19,-1
 530 536 l 1,20,-1
 530 -240 l 1,21,-1
 442 -240 l 1,22,-1
 442 -11 l 2,0,1
290 63 m 0,23,24
 345 63 345 63 378.5 83 c 128,-1,25
 412 103 412 103 427 144.5 c 128,-1,26
 442 186 442 186 443 248 c 2,27,-1
 443 266 l 2,28,29
 443 368 443 368 409 420.5 c 128,-1,30
 375 473 375 473 288 473 c 0,31,32
 216 473 216 473 181 416.5 c 128,-1,33
 146 360 146 360 146 265 c 256,34,35
 146 170 146 170 181.5 116.5 c 128,-1,36
 217 63 217 63 290 63 c 0,23,24
EndSplineSet
Fore
Validated: 1
EndChar

StartChar: brokenbar
Encoding: 166 166 99
Width: 1000
LayerCount: 2
Back
SplineSet
431 303 m 2,0,1
 425 324 425 324 419 344.5 c 128,-1,2
 413 365 413 365 408.5 383.5 c 128,-1,3
 404 402 404 402 400 418 c 128,-1,4
 396 434 396 434 394 445 c 1,5,-1
 390 445 l 1,6,7
 388 434 388 434 384.5 418 c 128,-1,8
 381 402 381 402 376.5 383 c 128,-1,9
 372 364 372 364 366.5 343.5 c 128,-1,10
 361 323 361 323 354 302 c 2,11,-1
 258 1 l 1,12,-1
 158 1 l 1,13,-1
 11 537 l 1,14,-1
 102 537 l 1,15,-1
 176 251 l 2,16,17
 184 222 184 222 191 192.5 c 128,-1,18
 198 163 198 163 203.5 136.5 c 128,-1,19
 209 110 209 110 211 91 c 1,20,-1
 215 91 l 1,21,22
 218 103 218 103 222 121 c 128,-1,23
 226 139 226 139 230.5 159 c 128,-1,24
 235 179 235 179 240.5 199 c 128,-1,25
 246 219 246 219 251 235 c 2,26,-1
 346 537 l 1,27,-1
 442 537 l 1,28,-1
 534 235 l 2,29,30
 541 212 541 212 548.5 186 c 128,-1,31
 556 160 556 160 562 135.5 c 128,-1,32
 568 111 568 111 570 92 c 1,33,-1
 574 92 l 1,34,35
 576 109 576 109 581.5 134.5 c 128,-1,36
 587 160 587 160 594.5 190.5 c 128,-1,37
 602 221 602 221 610 251 c 2,38,-1
 685 537 l 1,39,-1
 775 537 l 1,40,-1
 626 1 l 1,41,-1
 523 1 l 1,42,-1
 431 303 l 2,0,1
EndSplineSet
Fore
Validated: 1
EndChar
